<svg xmlns="http://www.w3.org/2000/svg" width="14" height="19" viewBox="0 0 14 19" fill="none">
  <path fill-rule="evenodd" clip-rule="evenodd"
    d="M9.31749 16.417C11.2423 13.9626 13.6668 10.3966 13.6668 8.00722C13.6668 4.04518 10.6821 0.833313 7.00016 0.833313C3.31826 0.833313 0.333496 4.04518 0.333496 8.00722C0.333496 10.3966 2.75804 13.9626 4.68284 16.417C5.68703 17.6976 6.18913 18.3379 7.00016 18.3379C7.81119 18.3379 8.31329 17.6976 9.31749 16.417ZM7.00016 10.8333C5.61945 10.8333 4.50016 9.71402 4.50016 8.33331C4.50016 6.9526 5.61945 5.83331 7.00016 5.83331C8.38087 5.83331 9.50016 6.9526 9.50016 8.33331C9.50016 9.71402 8.38087 10.8333 7.00016 10.8333Z"
    fill="#040404" />
</svg>