<svg width="28" height="28" viewBox="0 0 28 28" fill="none" xmlns="http://www.w3.org/2000/svg">
  <path fill-rule="evenodd" clip-rule="evenodd"
    d="M11.0406 18.9215C10.6601 19.1226 10.6393 19.1971 10.6054 20.4812C10.572 21.7482 10.5364 21.9072 10.2089 22.2523C9.98736 22.4859 9.54836 22.6958 9.2799 22.6965C8.84944 22.6976 8.46089 22.9976 8.38824 23.3849C8.33511 23.6681 8.49262 24.0358 8.73866 24.203C9.10116 24.4494 9.94151 24.3564 10.6357 23.9932C11.0399 23.7817 11.6228 23.2115 11.8572 22.7984C12.1679 22.2506 12.2497 21.7866 12.2497 20.5718C12.2497 19.6051 12.2389 19.4815 12.137 19.2708C12.0551 19.1018 11.9605 19.0071 11.7914 18.9253C11.5052 18.7868 11.2976 18.7857 11.0406 18.9215ZM13.5958 18.9366C13.1783 19.1759 13.1797 19.1667 13.1798 21.5746C13.1799 23.9549 13.1811 23.9629 13.5571 24.2141C13.9467 24.4744 14.513 24.3219 14.7252 23.8995C14.8114 23.728 14.8209 23.4976 14.8209 21.5746C14.821 19.601 14.8134 19.4257 14.7196 19.2494C14.5963 19.0178 14.2601 18.8144 14.0004 18.8144C13.8951 18.8144 13.713 18.8694 13.5958 18.9366ZM16.2053 18.9264C16.0412 19.0076 15.9434 19.1064 15.8633 19.2719C15.7619 19.4813 15.7511 19.6067 15.7511 20.5718C15.7511 21.7866 15.8329 22.2506 16.1436 22.7984C16.378 23.2115 16.9609 23.7817 17.3651 23.9932C18.0593 24.3564 18.8996 24.4494 19.2621 24.203C19.5082 24.0358 19.6657 23.6681 19.6125 23.3849C19.5399 22.9976 19.1513 22.6976 18.7209 22.6965C18.4524 22.6958 18.0134 22.4859 17.7918 22.2523C17.4644 21.9072 17.4287 21.7482 17.3954 20.4812C17.3613 19.1904 17.3409 19.119 16.9485 18.9188C16.6817 18.7827 16.4916 18.7847 16.2053 18.9264Z"
    fill="#b0e0e6" />
  <path fill-rule="evenodd" clip-rule="evenodd"
    d="M2.68461 3.08123C2.52436 3.12002 2.18242 3.25619 1.92474 3.38389C1.10721 3.78901 0.488273 4.51425 0.150056 5.46336L0.0233475 5.81897L0.00671564 10.2849C-0.0120499 15.3109 -0.019381 15.1994 0.384543 16.0224C0.809147 16.8875 1.66563 17.5918 2.62032 17.8608C2.79857 17.911 3.2613 17.958 3.75555 17.9761L4.58988 18.0066L4.5907 16.8093C4.59163 15.4456 4.63994 15.1423 4.96027 14.4905C5.25548 13.8897 5.88366 13.2695 6.50473 12.9655C7.33222 12.5604 7.00035 12.5776 14 12.5776C20.9997 12.5776 20.6678 12.5604 21.4953 12.9655C22.1163 13.2695 22.7445 13.8897 23.0397 14.4905C23.3601 15.1423 23.4084 15.4456 23.4093 16.8093L23.4101 18.0066L24.2444 17.9761C24.7387 17.958 25.2014 17.911 25.3797 17.8608C26.3344 17.5918 27.1909 16.8875 27.6155 16.0224C28.0194 15.1994 28.0121 15.3109 27.9933 10.2849L27.9767 5.81897L27.8499 5.46336C27.5018 4.48646 26.8855 3.77698 26.0271 3.36512C25.7462 3.23032 25.386 3.09338 25.2265 3.06071C24.7711 2.96754 3.07283 2.98729 2.68461 3.08123ZM19.9425 6.26004C20.3332 6.55214 20.4422 6.97357 20.2247 7.35085C20.0144 7.71566 19.8447 7.76763 18.9239 7.74947C18.2302 7.73579 18.1124 7.72009 17.9854 7.6244C17.5969 7.33165 17.5336 6.80961 17.8395 6.42067C18.0442 6.16053 18.2201 6.11856 19.0432 6.13361C19.7012 6.14559 19.8099 6.16086 19.9425 6.26004ZM23.8467 6.21573C23.9514 6.26831 24.0951 6.39753 24.1662 6.50285C24.3421 6.76398 24.3176 7.2509 24.1179 7.4647C23.8702 7.72983 23.7445 7.76118 22.9286 7.76118C22.2289 7.76118 22.1531 7.75122 21.9821 7.63699C21.4574 7.28646 21.5035 6.50854 22.0656 6.23034C22.3735 6.07791 23.5531 6.06823 23.8467 6.21573ZM7.71442 14.2761C7.17969 14.3811 6.61114 14.8332 6.38464 15.3335C6.26756 15.5921 6.25728 15.6973 6.24103 16.802L6.22352 17.9919H14H21.7765L21.759 16.802C21.7427 15.6973 21.7324 15.5921 21.6154 15.3335C21.4711 15.0148 21.0778 14.6068 20.7554 14.4413C20.6343 14.3791 20.4033 14.3032 20.2419 14.2726C19.8788 14.2038 8.06599 14.2071 7.71442 14.2761Z"
    fill="#040404" />
</svg>