<svg width="28" height="28" viewBox="0 0 28 28" fill="none" xmlns="http://www.w3.org/2000/svg">
  <path fill-rule="evenodd" clip-rule="evenodd"
    d="M11.8371 5.65584C11.3767 5.77105 11.0321 5.96779 10.6849 6.31363C10.3274 6.66987 10.1112 7.06213 10.0117 7.5356C9.97474 7.7109 9.95068 8.46153 9.95068 9.43569V11.046H18.9727H27.9948V9.43569C27.9948 8.44201 27.971 7.7144 27.9327 7.5356C27.7312 6.59381 26.9739 5.83607 26.0373 5.63911C25.5989 5.54687 12.2094 5.56267 11.8371 5.65584ZM20.9973 7.60198C21.2399 7.72577 21.4333 8.04078 21.4333 8.3121C21.4333 8.73001 21.029 9.13228 20.609 9.13228C20.3547 9.13228 20.0169 8.91963 19.8966 8.6838C19.6947 8.28798 19.8214 7.85585 20.2081 7.62177C20.4699 7.46331 20.7134 7.45719 20.9973 7.60198ZM24.278 7.60198C24.5206 7.72577 24.714 8.04078 24.714 8.3121C24.714 8.73001 24.3098 9.13228 23.8898 9.13228C23.6355 9.13228 23.2977 8.91963 23.1774 8.6838C22.9754 8.28798 23.1022 7.85585 23.4888 7.62177C23.7506 7.46331 23.9942 7.45719 24.278 7.60198Z"
    fill="#b0e0e6" />
  <path fill-rule="evenodd" clip-rule="evenodd"
    d="M1.88643 0.0783262C1.42603 0.193535 1.08139 0.39027 0.734229 0.736115C0.376683 1.09235 0.160537 1.48462 0.0609666 1.95808C0.0195199 2.15514 0 3.46318 0 6.04534V9.84285H4.15561H8.31121V8.74697C8.31121 7.53529 8.37743 7.06313 8.63305 6.45171C9.02876 5.50527 9.86022 4.67262 10.8144 4.26729C11.5383 3.95977 11.7861 3.93752 14.4876 3.93752H16.9505V3.09267C16.9505 2.62801 16.9226 2.11747 16.8885 1.95808C16.6869 1.01629 15.9296 0.258548 14.993 0.0615944C14.5554 -0.0304851 2.25841 -0.0147375 1.88643 0.0783262ZM4.4851 4.48502C4.62404 4.55588 4.74018 4.67202 4.81105 4.81096C4.91193 5.00879 4.92111 5.13182 4.92111 6.28871C4.92111 7.44561 4.91193 7.56864 4.81105 7.76647C4.6866 8.01039 4.37192 8.20248 4.09688 8.20248C3.84257 8.20248 3.50476 7.98983 3.38447 7.754C3.29118 7.57116 3.28096 7.42243 3.28304 6.27723C3.28561 4.83409 3.30759 4.73988 3.69592 4.50481C3.95772 4.34635 4.20126 4.34023 4.4851 4.48502ZM0 18.6162C0 23.7269 0.0176085 25.8312 0.0620078 26.0388C0.263063 26.9782 1.01807 27.7332 1.95745 27.9343C2.15605 27.9768 3.32984 27.9963 5.68864 27.9963H9.13003L8.93997 27.6992C8.74525 27.3948 8.58379 27.0307 8.42915 26.5473C8.35118 26.3034 8.33992 25.4761 8.32515 18.8786L8.30853 11.4832H4.15429H0V18.6162ZM9.95158 19.2176C9.95158 23.88 9.96935 25.832 10.0136 26.0388C10.2146 26.9782 10.9696 27.7332 11.909 27.9343C12.3156 28.0213 25.6253 28.0222 26.0382 27.9353C26.9661 27.7398 27.741 26.9651 27.935 26.0388C27.9774 25.8359 27.9957 23.7915 27.9957 19.2176V12.6862H18.9736H9.95158V19.2176ZM4.4851 13.2337C4.62404 13.3045 4.74018 13.4207 4.81105 13.5596C4.9163 13.766 4.92111 13.8781 4.92111 16.1309C4.92111 18.3838 4.9163 18.4959 4.81105 18.7023C4.6866 18.9462 4.37192 19.1383 4.09688 19.1383C3.84257 19.1383 3.50476 18.9256 3.38447 18.6898C3.28725 18.4993 3.2809 18.3382 3.28304 16.1195C3.28561 13.4553 3.27828 13.5063 3.69592 13.2535C3.95772 13.095 4.20126 13.0889 4.4851 13.2337ZM20.2586 14.487C22.0805 14.9622 23.5084 16.3985 24.0127 18.2634C24.1167 18.6479 24.1384 18.8652 24.1384 19.521C24.1384 20.1769 24.1167 20.3942 24.0127 20.7787C23.5088 22.6423 22.1006 24.0605 20.2586 24.5595C19.6112 24.735 18.3678 24.7346 17.716 24.5589C15.8477 24.0553 14.4432 22.6579 13.9323 20.7942C13.7642 20.1807 13.7642 18.8613 13.9323 18.2479C14.4973 16.1867 16.1574 14.7063 18.2901 14.3621C18.6691 14.3009 19.8269 14.3743 20.2586 14.487ZM18.2081 16.0519C17.2266 16.2627 16.2566 17.0244 15.8096 17.9353C15.5529 18.4585 15.4214 18.9957 15.4214 19.521C15.4214 20.8283 16.2189 22.1114 17.3879 22.685C18.4408 23.2017 19.5064 23.2017 20.5593 22.685C21.4823 22.2322 22.2357 21.2633 22.4458 20.2592C22.6131 19.4596 22.5122 18.6987 22.1376 17.9353C21.8176 17.2832 21.2115 16.677 20.5593 16.357C19.7988 15.9839 19.0048 15.8808 18.2081 16.0519Z"
    fill="#040404" />
</svg>