<svg width="28" height="28" viewBox="0 0 28 28" fill="none" xmlns="http://www.w3.org/2000/svg">
  <path
    d="M19.7529 25.1572H7.43924C6.85766 25.1574 6.2999 25.3883 5.88832 25.7992C5.47675 26.2101 5.24498 26.7675 5.24386 27.349V28H5.70116C5.73769 27.4236 5.99213 26.8828 6.41284 26.4872C6.83355 26.0915 7.38902 25.8708 7.96652 25.8697H20.8117C21.3897 25.8703 21.9457 26.0909 22.367 26.4865C22.7884 26.8821 23.0434 27.4232 23.0803 28H23.534V27.349C23.5334 26.7681 23.3025 26.2112 22.8919 25.8003C22.4812 25.3894 21.9244 25.1582 21.3435 25.1572H19.7529ZM17.3893 14.7545L15.2196 16.6748C14.5534 17.2646 13.6943 17.5901 12.8045 17.5898H0.9937V17.7356C0.996112 19.5308 1.71045 21.2518 2.98003 22.5211C4.24961 23.7904 5.97078 24.5043 7.76602 24.5063H19.7536C21.549 24.5043 23.2704 23.7902 24.54 22.5206C25.8096 21.2511 26.5238 19.5297 26.5259 17.7343V14.0029H19.3731C18.6422 14.0027 17.9365 14.2701 17.3893 14.7545ZM27.0483 12.5265H18.7332C18.0023 12.5264 17.2967 12.7937 16.7494 13.2781L14.58 15.1984C13.9135 15.7876 13.0545 16.1126 12.1649 16.1121H0.4713C0.345342 16.1114 0.223687 16.1578 0.130193 16.2423C0.0896377 16.2771 0.0570288 16.3202 0.0345687 16.3687C0.0121086 16.4172 0.000320361 16.47 0 16.5235C0.00851867 16.6406 0.0628922 16.7496 0.151315 16.8269C0.239738 16.9042 0.355072 16.9434 0.472276 16.9362H12.8045C13.5354 16.9365 14.2411 16.6692 14.7883 16.1846L16.958 14.2643C17.6242 13.6745 18.4833 13.349 19.3731 13.3494H27.0483C27.1742 13.35 27.2959 13.3036 27.3894 13.2192C27.43 13.1843 27.4626 13.1412 27.485 13.0927C27.5075 13.0442 27.5193 12.9914 27.5196 12.9379C27.5107 12.8213 27.4563 12.7128 27.3681 12.6358C27.28 12.5589 27.1651 12.5196 27.0483 12.5265Z"
    fill="#040404" />
  <path
    d="M22.1681 1.13662C22.4905 0.81426 22.9276 0.63293 23.3835 0.632413C23.8394 0.63293 24.2765 0.81425 24.5989 1.1366C24.9213 1.45895 25.1027 1.89602 25.1033 2.35194V11.8746H25.7354V2.35194C25.7354 1.72817 25.4876 1.12994 25.0465 0.688867C24.6055 0.247793 24.0072 0 23.3835 0C22.7597 0 22.1615 0.247793 21.7204 0.688867C21.2793 1.12994 21.0315 1.72817 21.0315 2.35194V2.68068C21.2417 2.65757 21.4538 2.65757 21.6639 2.68068V2.35194C21.6644 1.89605 21.8458 1.45898 22.1681 1.13662Z"
    fill="#b0e0e6" />
  <path
    d="M19.1577 6.23886V5.49773C19.1577 5.46811 19.1629 5.43654 19.1652 5.40627H23.5267C23.528 5.43654 23.5345 5.46811 23.5345 5.49773V6.23886C23.5343 6.40092 23.4699 6.5563 23.3553 6.67089C23.2407 6.78549 23.0853 6.84994 22.9232 6.85011H19.7693C19.6072 6.85003 19.4517 6.78561 19.3371 6.67101C19.2224 6.5564 19.1579 6.40098 19.1577 6.23886Z"
    fill="#b0e0e6" />
  <path
    d="M20.0918 3.70879C20.4596 3.45008 20.8982 3.31121 21.3479 3.31114V3.31244C21.7973 3.31219 22.2358 3.4508 22.6035 3.70931C22.9711 3.96782 23.2499 4.3336 23.4017 4.75661H19.2931C19.4451 4.33343 19.7241 3.9675 20.0918 3.70879Z"
    fill="#b0e0e6" />
</svg>