<svg width="28" height="28" viewBox="0 0 28 28" fill="none" xmlns="http://www.w3.org/2000/svg">
  <path fill-rule="evenodd" clip-rule="evenodd"
    d="M24.8682 1.47997L22.6938 2.20795V6.88299V11.5581L24.8632 12.2855C26.7113 12.9051 27.0687 13.0088 27.2763 12.9852C27.5654 12.9523 27.7599 12.8188 27.8986 12.5582C27.9952 12.3765 27.9998 12.1153 27.9998 6.87135V1.37503L27.8767 1.19263C27.809 1.09232 27.69 0.962658 27.6122 0.904559C27.3093 0.678344 27.1841 0.704607 24.8682 1.47997Z"
    fill="#b0e0e6" />
  <path fill-rule="evenodd" clip-rule="evenodd"
    d="M5.79636 0.0650976C5.22085 0.166729 4.33843 0.462078 3.81308 0.728957C2.53374 1.37875 1.31895 2.60036 0.690057 3.86943C-0.585124 6.44277 -0.0582453 9.6313 1.9834 11.697C3.20547 12.9334 4.73572 13.6428 6.45972 13.772C7.44291 13.8456 6.83015 13.9412 17.2235 12.0932C19.1941 11.7428 20.8617 11.4432 20.9295 11.4273L21.0525 11.3987V6.87539C21.0525 4.38758 21.033 2.35213 21.0092 2.35213C20.9853 2.35213 18.0377 1.82858 14.4588 1.18873C8.17983 0.0661458 7.92203 0.0245996 7.10387 0.0046264C6.5177 -0.00971896 6.11411 0.00898518 5.79636 0.0650976ZM7.46303 4.34283C7.93745 4.42995 8.45087 4.70439 8.79926 5.05712C9.8133 6.08364 9.81538 7.68144 8.80397 8.70161C7.78681 9.72758 6.20212 9.72758 5.18497 8.70161C4.53605 8.04708 4.29527 7.18393 4.50783 6.27432C4.72762 5.33382 5.49933 4.57213 6.44746 4.35982C6.83485 4.27309 7.06257 4.26928 7.46303 4.34283ZM6.6993 5.99575C6.49423 6.05765 6.23528 6.30483 6.13988 6.52984C5.89093 7.11667 6.34698 7.81104 6.98298 7.81352C7.57501 7.81579 8.01119 7.27778 7.90037 6.68201C7.85163 6.41993 7.53027 6.0662 7.27629 5.99503C7.04332 5.92976 6.9174 5.92992 6.6993 5.99575ZM9.5654 15.1216L6.69361 15.6308L6.71112 15.7641C6.80318 16.4666 7.68112 21.3711 7.75349 21.5874C7.89807 22.0195 8.19175 22.4709 8.54162 22.7989C8.88793 23.1234 9.5108 23.4563 9.88463 23.5165C10.1504 23.5594 10.1434 23.548 10.3285 24.2288C10.7319 25.7124 11.9019 27.0358 13.3275 27.6207C14.0583 27.9205 14.3883 27.9788 15.3363 27.9753C16.124 27.9725 16.2596 27.9573 16.6919 27.8244C18.5309 27.2589 19.8378 25.8938 20.3503 24.003C20.458 23.6059 20.4716 23.3857 20.5008 21.5529C20.5325 19.5634 20.5344 19.5364 20.6611 19.3309C20.8311 19.0553 21.079 18.8713 21.3954 18.7859C21.8609 18.6603 22.3709 18.8824 22.6473 19.3309L22.7756 19.539L22.803 23.5159L22.8303 27.4928L22.9801 27.6909C23.1564 27.924 23.4362 28.0333 23.7482 27.9911C24.018 27.9546 24.2084 27.8185 24.3427 27.5659C24.4385 27.3857 24.444 27.1665 24.444 23.5013C24.444 20.8861 24.4243 19.5321 24.3835 19.3348C24.2755 18.8124 24.0215 18.3578 23.6012 17.9345C22.8927 17.2213 21.987 16.9477 21.0622 17.1676C20.1096 17.3941 19.3574 18.0657 19.0145 18.9956C18.903 19.2983 18.8936 19.4449 18.8627 21.3597C18.8317 23.2824 18.8226 23.4237 18.7055 23.7874C18.3379 24.9305 17.5013 25.7902 16.3633 26.1943C15.8666 26.3707 15.0619 26.3955 14.4982 26.2517C13.2107 25.9233 12.2661 25.0201 11.8963 23.7636C11.7747 23.3501 11.7783 23.336 12.0406 23.2013C12.1685 23.1356 12.4477 22.9055 12.661 22.6898C13.1271 22.2188 13.3696 21.7475 13.4829 21.0927C13.5773 20.5475 13.5894 20.6453 13.0106 17.2634C12.7704 15.8602 12.5739 14.687 12.5739 14.6564C12.5739 14.5829 12.8122 14.546 9.5654 15.1216Z"
    fill="#040404" />
</svg>