<svg width="28" height="28" viewBox="0 0 28 28" fill="none" xmlns="http://www.w3.org/2000/svg">
  <path
    d="M1.74184 17.1347L0.314907 25.1779C0.278761 25.3825 0.335096 25.5906 0.469257 25.7501C0.603744 25.909 0.800428 25.9999 1.00916 25.9999H2.49698V24.0705C2.49698 23.8915 2.64287 23.7469 2.82262 23.7469C3.00237 23.7469 3.14825 23.8915 3.14825 24.0705V25.9999H4.73246V24.0705C4.73246 23.8915 4.87835 23.7469 5.0581 23.7469C5.23785 23.7469 5.38373 23.8915 5.38373 24.0705V25.9999H6.96794V24.0705C6.96794 23.8915 7.11383 23.7469 7.29358 23.7469C7.47333 23.7469 7.61921 23.8915 7.61921 24.0705V25.9999H9.20342V24.0705C9.20342 23.8915 9.34931 23.7469 9.52906 23.7469C9.70881 23.7469 9.85469 23.8915 9.85469 24.0705V25.9999H11.4389V24.0705C11.4389 23.8915 11.5848 23.7469 11.7645 23.7469C11.9443 23.7469 12.0902 23.8915 12.0902 24.0705V25.9999H13.6744V24.0705C13.6744 23.8915 13.8203 23.7469 14 23.7469C14.1798 23.7469 14.3257 23.8915 14.3257 24.0705V25.9999H15.9099V24.0705C15.9099 23.8915 16.0557 23.7469 16.2355 23.7469C16.4153 23.7469 16.5611 23.8915 16.5611 24.0705V25.9999H18.1453V24.0705C18.1453 23.8915 18.2912 23.7469 18.471 23.7469C18.6507 23.7469 18.7966 23.8915 18.7966 24.0705V25.9999H20.3808V24.0705C20.3808 23.8915 20.5267 23.7469 20.7065 23.7469C20.8862 23.7469 21.0321 23.8915 21.0321 24.0705V25.9999H22.6163V24.0705C22.6163 23.8915 22.7622 23.7469 22.9419 23.7469C23.1217 23.7469 23.2676 23.8915 23.2676 24.0705V25.9999H24.8518V24.0705C24.8518 23.8915 24.9977 23.7469 25.1774 23.7469C25.3572 23.7469 25.5031 23.8915 25.5031 24.0705V25.9999H26.9909C27.1996 25.9999 27.3963 25.909 27.5308 25.7501C27.6649 25.5909 27.7213 25.3825 27.6851 25.1779L26.2582 17.1347H1.74184Z"
    fill="#040404" />
  <path
    d="M6.53006 12.5723C5.87261 11.5652 5.74789 10.2986 6.19661 9.1834C6.53853 8.33454 7.28195 7.72517 8.18591 7.553L23.6389 4.61615C24.6337 4.42715 25.3553 3.5592 25.3553 2.55307V2L7.69225 5.58701C6.33696 5.86241 5.19789 6.72162 4.56714 7.9449L2.00146 12.9202H6.75703L6.53006 12.5723ZM11.255 5.52422L12.9099 5.18831C13.0848 5.15303 13.258 5.26533 13.2941 5.44041C13.33 5.61549 13.2163 5.78636 13.0401 5.82228L11.3853 6.1582C11.3635 6.16273 11.3413 6.16499 11.3198 6.16499C11.1684 6.16499 11.0326 6.05949 11.001 5.9061C10.9652 5.73102 11.0789 5.56015 11.255 5.52422ZM5.41183 9.14521C5.3542 9.25718 5.2399 9.32126 5.12169 9.32126C5.07187 9.32126 5.02107 9.30993 4.97353 9.28566C4.81332 9.20411 4.75015 9.00929 4.83221 8.85007L5.14677 8.24005C5.687 7.19281 6.66227 6.45657 7.82251 6.2213L10.2879 5.72066C10.4634 5.68539 10.636 5.79768 10.6721 5.97276C10.708 6.14784 10.5943 6.31871 10.4181 6.35463L7.95276 6.85527C6.98725 7.05139 6.17545 7.66368 5.7264 8.53519L5.41183 9.14521Z"
    fill="#040404" />
  <path
    d="M5.83624 14.7487H1.99408C1.8394 14.7487 1.71338 14.8739 1.71338 15.0273C1.71338 15.1807 1.8394 15.3063 1.99408 15.3063H5.83624C5.99091 15.3063 6.11693 15.181 6.11693 15.0273C6.11693 14.8736 5.99091 14.7487 5.83624 14.7487Z"
    fill="#b0e0e6" />
  <path
    d="M26.5311 13.5675H1.46894C0.659084 13.5675 0 14.2222 0 15.0274C0 15.8325 0.659084 16.4876 1.46894 16.4876H26.5311C27.3409 16.4876 28 15.8325 28 15.0274C28 14.2222 27.3409 13.5675 26.5311 13.5675ZM5.83602 15.9536H1.99386C1.48001 15.9536 1.06189 15.5381 1.06189 15.0274C1.06189 14.5167 1.48001 14.1015 1.99386 14.1015H5.83602C6.34987 14.1015 6.76799 14.5167 6.76799 15.0274C6.76799 15.5381 6.34987 15.9536 5.83602 15.9536ZM12.0902 15.351H7.80318C7.62343 15.351 7.47754 15.2063 7.47754 15.0274C7.47754 14.8484 7.62343 14.7038 7.80318 14.7038H12.0902C12.2699 14.7038 12.4158 14.8484 12.4158 15.0274C12.4158 15.2063 12.2699 15.351 12.0902 15.351Z"
    fill="#b0e0e6" />
</svg>