<svg width="28" height="28" viewBox="0 0 28 28" fill="none" xmlns="http://www.w3.org/2000/svg">
  <path
    d="M8.87688 28C8.18552 28 7.58626 27.8066 7.07911 27.4199C6.57306 27.0332 6.2751 26.5422 6.18521 25.947L3.83312 10.2499C3.77763 9.89251 3.87862 9.57972 4.13608 9.31147C4.39465 9.04321 4.73478 8.90909 5.15648 8.90909H21.5712C21.9929 8.90909 22.3325 9.04321 22.5899 9.31147C22.8485 9.57972 22.9501 9.893 22.8946 10.2513L20.5375 25.9455C20.4476 26.5408 20.148 27.0317 19.6386 27.4185C19.1303 27.8052 18.5366 27.9985 17.8575 27.9985H8.87855L8.87688 28ZM13.343 18.4545C14.4972 18.4545 15.4798 18.0972 16.2911 17.3825C17.1023 16.6698 17.5079 15.8034 17.5079 14.7832V13.3147C17.5079 13.1062 17.428 12.9319 17.2682 12.7919C17.1084 12.6509 16.9103 12.5804 16.6739 12.5804C16.4375 12.5804 16.24 12.6509 16.0813 12.7919C15.9226 12.9329 15.8433 13.1071 15.8433 13.3147V14.7832C15.8433 15.3873 15.5986 15.9057 15.1092 16.3384C14.6187 16.7701 14.0311 16.986 13.3464 16.986C12.6617 16.986 12.074 16.7701 11.5835 16.3384C11.0941 15.9057 10.8494 15.3873 10.8494 14.7832V13.3147C10.8494 13.1062 10.7695 12.9319 10.6097 12.7919C10.4499 12.6509 10.2519 12.5804 10.0155 12.5804C9.7791 12.5804 9.58157 12.6509 9.42288 12.7919C9.26418 12.9329 9.18484 13.1071 9.18484 13.3147V14.7832C9.18484 15.8034 9.58934 16.6698 10.3983 17.3825C11.2062 18.0972 12.1878 18.4545 13.343 18.4545Z"
    fill="#040404" />
  <path
    d="M17.6478 7.19337C17.9596 7.4887 18.3356 7.63636 18.7758 7.63636C19.217 7.63636 19.5919 7.4887 19.9005 7.19031C20.2092 6.89091 20.3635 6.52989 20.3635 6.10726C20.3635 5.68361 20.2081 5.3231 19.8974 5.02573C19.5855 4.7304 19.2096 4.58273 18.7694 4.58273C18.3282 4.58273 17.9533 4.73193 17.6446 5.03032C17.336 5.3287 17.1817 5.68972 17.1817 6.11337C17.1817 6.53702 17.3371 6.89702 17.6478 7.19337Z"
    fill="#b0e0e6" />
  <path
    d="M8.57487 5.20751C9.20062 5.80836 9.94835 6.10879 10.818 6.10879C11.709 6.10879 12.462 5.80989 13.0771 5.20904C13.6923 4.60718 13.9999 3.88921 13.9999 3.05516C13.9999 2.19971 13.6923 1.47666 13.0771 0.885996C12.462 0.295332 11.7143 0 10.834 0C9.95366 0 9.20062 0.295332 8.57487 0.885996C7.94911 1.47768 7.63623 2.19564 7.63623 3.03988C7.63623 3.88412 7.94911 4.60667 8.57487 5.20751Z"
    fill="#b0e0e6" />
</svg>