<svg width="28" height="28" viewBox="0 0 28 28" fill="none" xmlns="http://www.w3.org/2000/svg">
  <path
    d="M26.2588 0H1.74125C0.783125 0 0 0.783125 0 1.75V21.2494C0 22.2119 0.783125 22.9994 1.74125 22.9994H26.2588C27.2213 22.9994 28 22.2119 28 21.2494V1.75C28 0.783125 27.2213 0 26.2588 0ZM25.6112 20.5931H2.38875V2.40625H25.6112V20.5931Z"
    fill="#040404" />
  <path
    d="M19.5739 25.2437H19.1189L18.6201 23.8744H9.59012L9.09574 25.2437H8.64074C7.69137 25.2437 6.91699 26.0181 6.91699 26.9762V27.5625C6.91699 27.8031 7.11387 28 7.35449 28H20.8601C21.1007 28 21.2976 27.8031 21.2976 27.5625V26.9762C21.2976 26.0181 20.5232 25.2437 19.5739 25.2437Z"
    fill="#040404" />
  <path
    d="M3.92188 6.31635H13.2628C13.3837 6.31635 13.4815 6.21853 13.4815 6.0976C13.4815 5.97668 13.3837 5.87885 13.2628 5.87885H3.92188C3.80095 5.87885 3.70312 5.97668 3.70312 6.0976C3.70312 6.21853 3.80095 6.31635 3.92188 6.31635Z"
    fill="#040404" />
  <path
    d="M3.92188 12.7982H10.9702C11.0911 12.7982 11.1889 12.7003 11.1889 12.5794C11.1889 12.4585 11.0911 12.3607 10.9702 12.3607H3.92188C3.80095 12.3607 3.70312 12.4585 3.70312 12.5794C3.70312 12.7003 3.80095 12.7982 3.92188 12.7982Z"
    fill="#040404" />
  <path
    d="M3.92188 8.47694H10.9702C11.0911 8.47694 11.1889 8.37911 11.1889 8.25819C11.1889 8.13726 11.0911 8.03944 10.9702 8.03944H3.92188C3.80095 8.03944 3.70312 8.13726 3.70312 8.25819C3.70312 8.37911 3.80095 8.47694 3.92188 8.47694Z"
    fill="#040404" />
  <path
    d="M3.92188 14.9587H10.9702C11.0911 14.9587 11.1889 14.8609 11.1889 14.7399C11.1889 14.619 11.0911 14.5212 10.9702 14.5212H3.92188C3.80095 14.5212 3.70312 14.619 3.70312 14.7399C3.70312 14.8609 3.80095 14.9587 3.92188 14.9587Z"
    fill="#040404" />
  <path
    d="M3.92188 10.6376H10.9702C11.0911 10.6376 11.1889 10.5397 11.1889 10.4188C11.1889 10.2979 11.0911 10.2001 10.9702 10.2001H3.92188C3.80095 10.2001 3.70312 10.2979 3.70312 10.4188C3.70312 10.5397 3.80095 10.6376 3.92188 10.6376Z"
    fill="#040404" />
  <path
    d="M3.92188 17.1195H13.2628C13.3837 17.1195 13.4815 17.0217 13.4815 16.9007C13.4815 16.7798 13.3837 16.682 13.2628 16.682H3.92188C3.80095 16.682 3.70312 16.7798 3.70312 16.9007C3.70312 17.0217 3.80095 17.1195 3.92188 17.1195Z"
    fill="#040404" />
  <path
    d="M3.92188 4.15561H13.2628C13.3837 4.15561 13.4815 4.05778 13.4815 3.93686C13.4815 3.81593 13.3837 3.71811 13.2628 3.71811H3.92188C3.80095 3.71811 3.70312 3.81593 3.70312 3.93686C3.70312 4.05778 3.80095 4.15561 3.92188 4.15561Z"
    fill="#040404" />
  <path
    d="M3.92188 19.2801H13.2628C13.3837 19.2801 13.4815 19.1823 13.4815 19.0614C13.4815 18.9404 13.3837 18.8426 13.2628 18.8426H3.92188C3.80095 18.8426 3.70312 18.9404 3.70312 19.0614C3.70312 19.1823 3.80095 19.2801 3.92188 19.2801Z"
    fill="#040404" />
  <path
    d="M24.1414 10.5963L22.7633 10.185C22.6758 9.89627 22.5577 9.61627 22.4133 9.3494L23.1002 8.07627C23.1439 7.98877 23.1308 7.88377 23.0608 7.81815L22.0852 6.83815C22.0152 6.77252 21.9102 6.75502 21.827 6.80315L20.5539 7.48127C20.2914 7.34127 20.0114 7.22315 19.7139 7.13565L19.3027 5.75752C19.272 5.66565 19.1889 5.60002 19.0927 5.60002H17.7102C17.6139 5.60002 17.5264 5.66565 17.5002 5.75752L17.0845 7.13565C16.7914 7.22315 16.5114 7.34127 16.2489 7.48127L14.9758 6.80315C14.8927 6.75502 14.7877 6.77252 14.7177 6.83815L13.742 7.81815C13.672 7.88377 13.6589 7.98877 13.7027 8.07627L14.3895 9.34502C14.2452 9.6119 14.1314 9.8919 14.0395 10.185L12.657 10.5963C12.5652 10.6269 12.5039 10.71 12.5039 10.8063V12.1888C12.5039 12.285 12.5652 12.3725 12.657 12.3988L14.0395 12.8144C14.1314 13.1075 14.2452 13.3875 14.3895 13.65L13.7027 14.9188C13.6589 15.0019 13.672 15.1069 13.742 15.1769L14.7177 16.1569C14.7877 16.2269 14.8927 16.2444 14.9758 16.1963L16.2489 15.5138C16.5114 15.6538 16.7914 15.7719 17.0845 15.8594L17.5002 17.2419C17.5264 17.3338 17.6139 17.3994 17.7102 17.3994H19.0927C19.1889 17.3994 19.2764 17.3338 19.3027 17.2419L19.7139 15.8594C20.0114 15.7719 20.2914 15.6538 20.5539 15.5138L21.8227 16.1963C21.9102 16.2444 22.0152 16.2269 22.0852 16.1569L23.0608 15.1769C23.1308 15.1069 23.1439 15.0019 23.1002 14.9188L22.4133 13.6456C22.5533 13.3919 22.6714 13.1163 22.7633 12.8144L24.1414 12.3988C24.2377 12.3725 24.2989 12.285 24.2989 12.1888V10.8063C24.2989 10.71 24.2377 10.6269 24.1414 10.5963ZM18.397 13.4138C17.3427 13.4138 16.4852 12.5563 16.4852 11.5019C16.4852 10.4431 17.3427 9.58565 18.397 9.58565C19.4558 9.58565 20.3133 10.4431 20.3133 11.5019C20.3133 12.5563 19.4558 13.4138 18.397 13.4138Z"
    fill="#b0e0e6" />
</svg>