<svg width="28" height="28" viewBox="0 0 28 28" fill="none" xmlns="http://www.w3.org/2000/svg">
  <path
    d="M15.3421 12.0909C14.4385 9.2591 17.6807 6.82501 20.1466 8.49228C20.4903 8.72455 20.1403 9.24955 19.7935 9.02046C17.7316 7.63319 15.0812 9.79683 16.023 12.0909H20.7385C20.9676 11.5405 20.9898 10.8564 20.7798 10.29C20.7194 10.1246 20.8053 9.94319 20.9707 9.88274C21.7121 9.66319 21.6039 11.6964 21.4162 12.0909H23.058C23.6816 9.18592 21.3589 6.32865 18.3807 6.36365C15.4026 6.32865 13.0798 9.18592 13.7035 12.0909H15.3453H15.3421Z"
    fill="#b0e0e6" />
  <path
    d="M13.0541 12.0909C12.8314 10.92 13.0478 9.62183 13.5982 8.61319C11.7146 8.33956 10.181 10.3473 10.9287 12.0909H13.0541Z"
    fill="#b0e0e6" />
  <path
    d="M10.2511 12.0909C9.49387 9.82227 11.6257 7.47727 13.958 8.02773C14.3016 7.54091 14.7216 7.11773 15.2021 6.76773C11.7402 5.18636 7.79796 8.365 8.60932 12.0909H10.2511Z"
    fill="#b0e0e6" />
  <path
    d="M7.87717 11.1364C7.87717 10.2232 8.10626 9.3641 8.50717 8.61319C6.62035 8.33956 5.0899 10.3473 5.83762 12.0909H7.96308C7.90899 11.7823 7.87717 11.4609 7.87717 11.1364Z"
    fill="#b0e0e6" />
  <path
    d="M5.01347 11.1364C4.98802 9.13818 6.92574 7.57909 8.86983 8.02773C9.21347 7.54409 9.63029 7.11773 10.1107 6.76773C6.64893 5.18636 2.70665 8.365 3.51802 12.0909H5.15983C5.06438 11.7886 5.01347 11.4673 5.01347 11.1364Z"
    fill="#b0e0e6" />
  <path
    d="M2.15004 12.0909V4.77273H24.4228V12.0909H25.0591V1.27273C25.0591 0.569545 24.4896 0 23.7864 0H2.7864C2.08322 0 1.51367 0.569545 1.51367 1.27273V12.0909H2.15004ZM19.9682 1.90909C19.9682 1.73409 20.1114 1.59091 20.2864 1.59091H22.5137C22.6887 1.59091 22.8319 1.73409 22.8319 1.90909V2.86364C22.8319 3.03864 22.6887 3.18182 22.5137 3.18182H20.2864C20.1114 3.18182 19.9682 3.03864 19.9682 2.86364V1.90909ZM17.9923 2.19227C18.3009 2.13818 18.3837 2.60591 18.075 2.66318C17.7664 2.71727 17.6837 2.24955 17.9923 2.19227ZM17.2446 1.27909C17.515 0.960909 17.9987 1.36818 17.7314 1.68955C17.4641 2.00773 16.9773 1.60045 17.2446 1.27909ZM16.465 1.74682C17.725 1.77864 17.725 3.62409 16.465 3.65591C15.205 3.62409 15.2082 1.77864 16.465 1.74682ZM15.2369 1.23773C15.5582 0.970455 15.9623 1.45727 15.6473 1.72455C15.3259 1.99182 14.9219 1.505 15.2369 1.23773ZM14.9378 2.18909C15.2464 2.24318 15.1637 2.71091 14.855 2.66C14.5464 2.60591 14.6291 2.13818 14.9378 2.18909ZM7.55276 2.065H11.6891C11.8641 2.065 12.0073 2.20818 12.0073 2.38318C12.0073 2.55818 11.8641 2.70136 11.6891 2.70136H7.55276C7.13594 2.695 7.13276 2.07136 7.55276 2.065ZM4.05276 1.90591C4.67958 1.91545 4.67958 2.85091 4.05276 2.86045C3.42594 2.85091 3.42594 1.91545 4.05276 1.90591Z"
    fill="#040404" />
  <path
    d="M0.26012 15.9091H11.0592V15.5909C11.0592 15.0659 11.4888 14.6364 12.0138 14.6364H14.5592C15.0842 14.6364 15.5138 15.0659 15.5138 15.5909V15.9091H26.3129L26.5642 13.7932C26.6406 13.2427 26.1728 12.7145 25.616 12.7273H0.956938C0.403302 12.7145 -0.0707893 13.2459 0.00875613 13.7932L0.26012 15.9091Z"
    fill="#040404" />
  <path
    d="M12.0135 15.2727C11.8385 15.2727 11.6953 15.4159 11.6953 15.5909V15.9091H14.8771V15.5909C14.8771 15.4159 14.7339 15.2727 14.5589 15.2727H12.0135Z"
    fill="#040404" />
  <path
    d="M15.1955 16.5455H0.336426L1.44688 25.8841C1.50415 26.3645 1.91143 26.7273 2.39506 26.7273H3.41961V27.0455C3.41961 27.5705 3.84915 28 4.37415 28H5.64688C6.17188 28 6.60143 27.5705 6.60143 27.0455V26.7273H19.9651V27.0455C19.9651 27.5705 20.3946 28 20.9196 28H22.1923C22.7173 28 23.1469 27.5705 23.1469 27.0455V26.7273H24.1714C24.6551 26.7273 25.0623 26.3645 25.1196 25.8841L26.2301 16.5455H15.1892H15.1955Z"
    fill="#040404" />
</svg>