<svg width="28" height="28" viewBox="0 0 28 28" fill="none" xmlns="http://www.w3.org/2000/svg">
  <path
    d="M17.7446 23.9663V25.9875C17.7446 27.0987 16.839 28 15.719 28H12.114C10.994 28 10.084 27.0987 10.084 25.9875V23.9663L17.7446 23.9663Z"
    fill="#b0e0e6" />
  <path
    d="M21.3363 8.68437H20.5138V1.48751C20.5138 0.665009 19.84 0 19.0131 0C18.6194 0 18.2431 0.153116 17.9631 0.433121C17.6744 0.708746 17.5169 1.08499 17.5169 1.48751V8.68436H10.3156V1.48751C10.3156 0.665009 9.64187 0 8.81939 0C8.42125 0 8.04501 0.153116 7.765 0.433121C7.48064 0.708746 7.31874 1.08499 7.31874 1.48751V8.68436H6.49627C5.67377 8.68436 5 9.35375 5 10.1719V11.2219C5 12.04 5.67377 12.705 6.49627 12.705H21.3363C22.1588 12.705 22.8325 12.04 22.8325 11.2219V10.1719C22.8325 9.35375 22.1588 8.68437 21.3363 8.68437Z"
    fill="#040404" />
  <path
    d="M21.3366 13.58H6.49662C6.46161 13.58 6.42661 13.58 6.3916 13.5756V19.5038C6.3916 21.4812 8.01474 23.0913 10.0054 23.0913H17.8279C19.8185 23.0913 21.4416 21.4812 21.4416 19.5038V13.5756C21.4066 13.58 21.3716 13.58 21.3366 13.58ZM9.25525 19.9709C9.25525 20.2125 9.05935 20.4084 8.81775 20.4084C8.57614 20.4084 8.38025 20.2125 8.38025 19.9709V18.1859C8.38025 17.9443 8.57614 17.7484 8.81775 17.7484C9.05935 17.7484 9.25525 17.9443 9.25525 18.1859V19.9709ZM9.25525 16.4709C9.25525 16.7125 9.05935 16.9084 8.81775 16.9084C8.57614 16.9084 8.38025 16.7125 8.38025 16.4709V15.3772C8.38025 15.1356 8.57614 14.9397 8.81775 14.9397C9.05935 14.9397 9.25525 15.1356 9.25525 15.3772V16.4709Z"
    fill="#040404" />
</svg>