<svg width="28" height="28" viewBox="0 0 28 28" fill="none" xmlns="http://www.w3.org/2000/svg">
  <path
    d="M2.35287 14.0685C2.35287 13.8267 2.54873 13.6308 2.79053 13.6308C3.03147 13.6308 3.2282 13.8267 3.2282 14.0685V20.4584H6.41147C6.65327 20.4584 6.84913 20.6543 6.84913 20.8961C6.84913 21.1379 6.65327 21.3337 6.41147 21.3337H2.79053C2.54873 21.3337 2.35287 21.1379 2.35287 20.8961V14.0685ZM24.1227 11.3047V7.52687H1V22.6857H11.6756C10.9675 21.4308 10.5628 19.9809 10.5628 18.4382C10.5628 16.0488 11.5326 13.883 13.0987 12.3169C14.6647 10.7509 16.8297 9.78107 19.2191 9.78107C21.0391 9.78107 22.7291 10.3435 24.1235 11.3038L24.1227 11.3047ZM1 6.65153H24.1227V3.73693H20.5338V5.52833C20.5338 5.77013 20.3379 5.966 20.0961 5.966C19.8543 5.966 19.6585 5.77013 19.6585 5.52833V3.73693H14.7653V5.52833C14.7653 5.77013 14.5694 5.966 14.3276 5.966C14.0858 5.966 13.8899 5.77013 13.8899 5.52833V3.73693H8.99673V5.52833C8.99673 5.77013 8.80087 5.966 8.55907 5.966C8.31813 5.966 8.1214 5.77013 8.1214 5.52833V3.73693H3.2282V5.52833C3.2282 5.77013 3.03233 5.966 2.79053 5.966C2.54873 5.966 2.35287 5.77013 2.35287 5.52833V3.73693H1V6.65153ZM20.5338 3.73693H19.6585L19.6593 2.5548C19.6593 2.12667 19.8344 1.73753 20.1161 1.45587C20.3969 1.17507 20.7869 1 21.215 1C21.6431 1 22.0323 1.17507 22.3139 1.45673C22.5956 1.7384 22.7707 2.12753 22.7707 2.55567C22.7707 2.79747 22.5748 2.99333 22.333 2.99333C22.0912 2.99333 21.8953 2.79747 21.8953 2.55567C21.8953 2.36933 21.8182 2.19947 21.6951 2.07553C21.5721 1.95247 21.4022 1.87533 21.2159 1.87533C21.0287 1.87533 20.8588 1.95247 20.7357 2.07553C20.6127 2.1986 20.5355 2.36933 20.5355 2.55567V3.7378L20.5338 3.73693ZM14.7653 3.73693H13.8899L13.8908 2.5548C13.8908 2.12667 14.0659 1.73753 14.3475 1.45587C14.6283 1.17507 15.0183 1 15.4465 1C15.8746 1 16.2637 1.17507 16.5454 1.45673C16.8271 1.7384 17.0021 2.12753 17.0021 2.55567C17.0021 2.79747 16.8063 2.99333 16.5645 2.99333C16.3227 2.99333 16.1268 2.79747 16.1268 2.55567C16.1268 2.36933 16.0497 2.19947 15.9266 2.07553C15.8035 1.95247 15.6337 1.87533 15.4473 1.87533C15.2601 1.87533 15.0903 1.95247 14.9672 2.07553C14.8441 2.1986 14.767 2.36933 14.767 2.55567V3.7378L14.7653 3.73693ZM8.99673 3.73693H8.1214L8.12227 2.5548C8.12227 2.12753 8.29733 1.73927 8.57813 1.4576C8.86153 1.17507 9.25067 1 9.67707 1C10.1052 1 10.4943 1.17507 10.776 1.45673C11.0577 1.7384 11.2327 2.12753 11.2327 2.55567C11.2327 2.79747 11.0369 2.99333 10.7951 2.99333C10.5533 2.99333 10.3574 2.79747 10.3574 2.55567C10.3574 2.36933 10.2803 2.19947 10.1572 2.07553C10.0341 1.95247 9.86427 1.87533 9.67793 1.87533C9.48987 1.87533 9.31913 1.95247 9.19693 2.07467C9.07387 2.19773 8.9976 2.3676 8.9976 2.55567V3.7378L8.99673 3.73693ZM3.2282 3.73693H2.35287L2.35373 2.5548C2.35373 2.12667 2.5288 1.73753 2.81047 1.45587C3.09127 1.17507 3.48127 1 3.9094 1C4.33753 1 4.72667 1.17507 5.00833 1.45673C5.29 1.7384 5.46507 2.12753 5.46507 2.55567C5.46507 2.79747 5.2692 2.99333 5.0274 2.99333C4.7856 2.99333 4.58973 2.79747 4.58973 2.55567C4.58973 2.36933 4.5126 2.19947 4.38953 2.07553C4.26647 1.95247 4.0966 1.87533 3.91027 1.87533C3.72307 1.87533 3.5532 1.95247 3.43013 2.07553C3.30707 2.1986 3.22993 2.36933 3.22993 2.55567V3.7378L3.2282 3.73693Z"
    fill="#040404" />
  <path
    d="M13.7173 12.9366C15.1248 11.5292 17.0705 10.6573 19.2189 10.6573C20.4596 10.7293 23.2969 11.2859 24.7205 12.9366C26.128 14.3441 26.9999 16.2898 26.9999 18.4382C26.9999 20.5867 26.128 22.5324 24.7205 23.9398C23.3131 25.3473 21.3674 26.2192 19.2189 26.2192C17.0705 26.2192 15.1248 25.3473 13.7173 23.9398C11.8912 22.2917 11.4369 19.5854 11.438 18.4382C11.438 16.2898 12.3099 14.3441 13.7173 12.9366Z"
    fill="#b0e0e6" />
  <path
    d="M19.2189 13.3353C18.9771 13.3353 18.7812 13.5311 18.7812 13.7729V18.4382C18.7812 18.68 18.9771 18.8759 19.2189 18.8759C19.2787 18.8759 19.3342 18.8637 19.3862 18.8429L22.4793 17.7371C22.7064 17.6565 22.8251 17.406 22.7445 17.1789C22.6631 16.9519 22.4126 16.8331 22.1855 16.9137L19.6566 17.8177V13.7729C19.6566 13.5311 19.4607 13.3353 19.2189 13.3353Z"
    fill="white" />
</svg>