<svg width="28" height="28" viewBox="0 0 28 28" fill="none" xmlns="http://www.w3.org/2000/svg">
  <path
    d="M3.51465 20.826H6.26075V26.2796H5.63275V28H8.6091V26.2796H7.98116V20.826H20.4556V26.2796H19.8277V28H22.804V26.2796H22.176V20.826H24.922V17.6662H3.51465V20.826ZM14.2183 18.4257C14.6715 18.4257 15.0388 18.793 15.0388 19.2461C15.0388 19.6993 14.6716 20.0668 14.2183 20.0668C13.7653 20.0668 13.3978 19.6994 13.3978 19.2461C13.3978 18.793 13.7653 18.4257 14.2183 18.4257Z"
    fill="#b0e0e6" />
  <path
    d="M17.6647 14.2255C17.3043 13.1213 16.2703 12.3194 15.0501 12.3076V9.81684C15.9023 9.7802 16.7488 9.68867 17.5862 9.54358V11.6723H19.3066V9.16642C19.755 9.04708 20.2002 8.91283 20.6411 8.76189L21.455 8.48324L18.5506 0H9.82928L6.92478 8.48324L7.73853 8.76189C9.54787 9.38135 11.4248 9.73495 13.3297 9.81684V12.3076C12.1095 12.3193 11.0754 13.1213 10.715 14.2255H1V15.9459H10.5782H17.8016H27.3797V14.2255H17.6647Z"
    fill="#040404" />
</svg>