<svg width="28" height="28" viewBox="0 0 28 28" fill="none" xmlns="http://www.w3.org/2000/svg">
  <path
    d="M6.43492 4.50442V0H3.21747V4.50442C3.21747 4.60094 0.321777 7.72186 0.321777 7.72186H9.33061C9.33061 7.72186 6.43492 4.60094 6.43492 4.50442Z"
    fill="#b0e0e6" />
  <path
    d="M10.2959 27.0265H17.3743V22.8438H10.2959V27.0265ZM12.5481 24.7743H14.8003C14.9934 24.7743 15.1221 24.903 15.1221 25.096C15.1221 25.2891 14.9934 25.4178 14.8003 25.4178H12.5481C12.3551 25.4178 12.2264 25.2891 12.2264 25.096C12.2264 24.903 12.3551 24.7743 12.5481 24.7743ZM10.2959 18.0177H17.3743V14.4785H10.2959V18.0177ZM12.5481 16.0872H14.8003C14.9934 16.0872 15.1221 16.2159 15.1221 16.409C15.1221 16.602 14.9934 16.7307 14.8003 16.7307H12.5481C12.3551 16.7307 12.2264 16.602 12.2264 16.409C12.2264 16.2159 12.3551 16.0872 12.5481 16.0872ZM10.2959 22.2003H17.3743V18.6612H10.2959V22.2003ZM12.5481 20.2699H14.8003C14.9934 20.2699 15.1221 20.3986 15.1221 20.5916C15.1221 20.7847 14.9934 20.9134 14.8003 20.9134H12.5481C12.3551 20.9134 12.2264 20.7847 12.2264 20.5916C12.2264 20.3986 12.3551 20.2699 12.5481 20.2699Z"
    fill="#040404" />
  <path
    d="M18.0176 27.0265H27.6699V17.0524H18.0176V27.0265ZM18.9828 18.3394C18.9828 18.1464 19.1115 18.0177 19.3046 18.0177C19.4976 18.0177 19.6263 18.1464 19.6263 18.3394V20.9134C19.6263 21.1064 19.4976 21.2351 19.3046 21.2351C19.1115 21.2351 18.9828 21.1064 18.9828 20.9134V18.3394ZM18.0176 0V16.409H27.6699V0H18.0176ZM19.6263 12.548V15.122C19.6263 15.315 19.4976 15.4437 19.3046 15.4437C19.1115 15.4437 18.9828 15.315 18.9828 15.122V12.548C18.9828 12.355 19.1115 12.2263 19.3046 12.2263C19.4976 12.2263 19.6263 12.355 19.6263 12.548Z"
    fill="#040404" />
  <path
    d="M0 14.4785H9.65233V15.122H0V14.4785ZM0 15.4437V27.0265H9.65233V15.4437H0ZM6.62793 16.2481C6.88533 16.2481 7.07837 16.4411 7.07837 16.6663C7.07837 16.8916 6.88533 17.0846 6.62793 17.0846C6.37053 17.0846 6.17749 16.8916 6.17749 16.6663C6.17749 16.4411 6.37053 16.2481 6.62793 16.2481ZM4.89051 16.2481C5.14791 16.2481 5.34095 16.4411 5.34095 16.6663C5.34095 16.8916 5.14791 17.0846 4.89051 17.0846C4.63312 17.0846 4.44007 16.8916 4.44007 16.6663C4.44007 16.4411 4.63312 16.2481 4.89051 16.2481ZM3.12092 16.2481C3.37831 16.2481 3.57136 16.4411 3.57136 16.6663C3.57136 16.8916 3.37831 17.0846 3.12092 17.0846C2.86352 17.0846 2.67048 16.8916 2.67048 16.6663C2.67048 16.4411 2.86352 16.2481 3.12092 16.2481ZM1.35133 16.2481C1.60872 16.2481 1.80177 16.4411 1.80177 16.6663C1.80177 16.8916 1.60872 17.0846 1.35133 17.0846C1.09393 17.0846 0.900884 16.8916 0.900884 16.6663C0.900884 16.4411 1.09393 16.2481 1.35133 16.2481ZM8.0436 24.4526H1.60872V20.2699H8.0436V24.4526ZM8.36535 18.6612H1.28698C1.09393 18.6612 0.965232 18.5325 0.965232 18.3394C0.965232 18.1464 1.09393 18.0177 1.28698 18.0177H8.36535C8.5584 18.0177 8.68709 18.1464 8.68709 18.3394C8.68709 18.5325 8.5584 18.6612 8.36535 18.6612ZM8.39752 17.1168C8.14013 17.1168 7.94708 16.9237 7.94708 16.6985C7.94708 16.4733 8.14013 16.2803 8.39752 16.2803C8.65492 16.2803 8.84797 16.4733 8.84797 16.6985C8.84797 16.9237 8.65492 17.1168 8.39752 17.1168Z"
    fill="#040404" />
  <path
    d="M4.82639 9.94187V8.88011C4.82639 8.68707 4.6977 8.55837 4.50465 8.55837C4.3116 8.55837 4.18291 8.68707 4.18291 8.88011V9.94187C4.18291 10.1349 4.3116 10.2636 4.50465 10.2636C4.6977 10.2636 4.82639 10.1027 4.82639 9.94187ZM6.75686 9.94187V8.88011C6.75686 8.68707 6.62816 8.55837 6.43512 8.55837C6.24207 8.55837 6.11337 8.68707 6.11337 8.88011V9.94187C6.11337 10.1349 6.24207 10.2636 6.43512 10.2636C6.62816 10.2636 6.75686 10.1027 6.75686 9.94187ZM2.89593 9.94187V8.88011C2.89593 8.68707 2.76723 8.55837 2.57419 8.55837C2.38114 8.55837 2.25244 8.68707 2.25244 8.88011V9.94187C2.25244 10.1349 2.38114 10.2636 2.57419 10.2636C2.76723 10.2636 2.89593 10.1027 2.89593 9.94187Z"
    fill="#b0e0e6" />
</svg>