<svg width="28" height="28" viewBox="0 0 28 28" fill="none" xmlns="http://www.w3.org/2000/svg">
  <path fill-rule="evenodd" clip-rule="evenodd"
    d="M12.9126 2.09097C12.8118 2.13939 12.6731 2.26488 12.6045 2.36979C12.5358 2.47469 10.8257 6.0656 8.8043 10.3496L5.12899 18.1386L4.73689 18.0715C3.42906 17.8476 2.14775 18.2566 1.18317 19.2057C0.603413 19.7762 0.248943 20.4224 0.0831116 21.2112C-0.45152 23.7541 1.66704 26.1423 4.31641 25.9834C5.36248 25.9206 6.2104 25.5438 6.9748 24.8022C7.39534 24.3941 7.51085 24.2422 7.72651 23.8134C8.284 22.705 8.33678 21.8197 7.91618 20.6332L7.74363 20.1464L11.1396 12.8734C13.0074 8.87327 14.5798 5.45644 14.6338 5.28045C14.7879 4.77864 14.7669 3.94778 14.5877 3.45499C14.1772 2.32552 13.5268 1.79593 12.9126 2.09097ZM20.1359 2.08921C19.8514 2.22595 19.7138 2.45784 19.7138 2.8005C19.7138 3.01852 19.7451 3.13665 19.8358 3.2606C20.0692 3.57963 20.1837 3.60048 21.7047 3.60048H23.0775V4.40046V5.20045H21.7047C20.1837 5.20045 20.0692 5.2213 19.8358 5.54033C19.6656 5.77308 19.6656 6.22779 19.8358 6.46053C20.0692 6.77956 20.1837 6.80041 21.7047 6.80041H23.0775V7.6004V8.40038H21.7047C20.1837 8.40038 20.0692 8.42123 19.8358 8.74026C19.6656 8.97301 19.6656 9.42772 19.8358 9.66046C20.0692 9.97949 20.1837 10.0003 21.7047 10.0003H23.0775V10.8003V11.6003H21.7047C20.1837 11.6003 20.0692 11.6212 19.8358 11.9402C19.7451 12.0641 19.7138 12.1823 19.7138 12.4003C19.7138 12.6183 19.7451 12.7364 19.8358 12.8604C20.0692 13.1794 20.1837 13.2003 21.7047 13.2003H23.0775V14.0003V14.8002H21.7047C20.1837 14.8002 20.0692 14.8211 19.8358 15.1401C19.6656 15.3729 19.6656 15.8276 19.8358 16.0603C20.0692 16.3794 20.1837 16.4002 21.7047 16.4002H23.0775V17.2002V18.0002H21.7047C20.1837 18.0002 20.0692 18.021 19.8358 18.3401C19.6656 18.5728 19.6656 19.0275 19.8358 19.2603C20.0692 19.5793 20.1837 19.6001 21.7047 19.6001H23.0775V20.4001V21.2001H21.7047C20.1837 21.2001 20.0692 21.221 19.8358 21.54C19.6656 21.7727 19.6656 22.2274 19.8358 22.4602C20.0692 22.7792 20.1837 22.8001 21.7047 22.8001H23.0775V23.6V24.4H21.7047C20.1837 24.4 20.0692 24.4209 19.8358 24.7399C19.6656 24.9727 19.6656 25.4274 19.8358 25.6601C20.0873 26.0039 20.0506 26 23.0099 26C24.6026 26 25.8071 25.9779 25.9822 25.9455C26.9734 25.7622 27.785 24.956 27.9465 23.994C28.0178 23.5694 28.0178 4.43108 27.9465 4.0065C27.785 3.04455 26.9734 2.23827 25.9822 2.05497C25.8064 2.02244 24.6057 2.001 23.0016 2.00174C20.6392 2.00281 20.2938 2.01337 20.1359 2.08921ZM4.54224 19.6546C5.82349 19.8915 6.71112 21.1067 6.51236 22.3515C6.30573 23.646 5.03284 24.5667 3.73895 24.3577C2.74385 24.1969 1.96496 23.5065 1.72469 22.5723C1.61459 22.1441 1.61459 21.856 1.72469 21.4279C2.03989 20.2024 3.28089 19.4213 4.54224 19.6546Z"
    fill="#040404" />
  <path fill-rule="evenodd" clip-rule="evenodd"
    d="M10.8095 17.4431C10.3374 18.4573 9.95115 19.3194 9.95115 19.3587C9.95115 19.3979 10.025 19.5822 10.1152 19.7682C10.2054 19.9542 10.2793 20.1322 10.2793 20.1638C10.2793 20.1954 10.2173 20.3701 10.1415 20.552C9.53357 22.0109 9.87896 23.6631 11.0282 24.794C11.8791 25.6312 12.991 26.0531 14.1615 25.9829C15.2076 25.9201 16.0555 25.5434 16.8199 24.8017C17.2401 24.3939 17.3561 24.2414 17.5719 23.8129C17.9254 23.1107 18.0154 22.7429 18.0154 21.9996C18.0154 21.2563 17.9254 20.8886 17.5719 20.1863C17.3561 19.7578 17.2401 19.6053 16.8199 19.1975C16.2757 18.6695 15.7767 18.3753 15.0653 18.1627C14.5558 18.0105 13.8089 17.9698 13.304 18.0666L12.9104 18.1422L12.3283 16.911C12.0081 16.2338 11.7285 15.6616 11.707 15.6394C11.6855 15.6173 11.2816 16.4289 10.8095 17.4431ZM14.3873 19.6541C15.6686 19.891 16.5562 21.1062 16.3574 22.3511C16.193 23.3813 15.3703 24.1849 14.3036 24.3572C13.3471 24.5117 12.2783 24.0014 11.8 23.1618C11.6298 22.8632 11.4826 22.324 11.4826 21.9996C11.4826 21.8714 11.5218 21.6139 11.5698 21.4274C11.885 20.202 13.126 19.4208 14.3873 19.6541Z"
    fill="#b0e0e6" />
  <path fill-rule="evenodd" clip-rule="evenodd"
    d="M4.39752 2.10688C3.83351 2.37914 3.28455 3.5205 3.28176 4.42656C3.27979 5.08399 3.3876 5.36345 4.87193 8.54983C5.66012 10.242 6.31945 11.6428 6.33712 11.6628C6.36244 11.6917 7.92701 8.44167 8.06905 8.0651C8.09268 8.00243 7.66421 7.03648 6.80344 5.21182C6.08766 3.69463 5.45748 2.39002 5.40306 2.31269C5.29925 2.16533 4.94894 1.99989 4.74088 2C4.67377 2 4.51927 2.04811 4.39752 2.10688Z"
    fill="#b0e0e6" />
</svg>