<svg width="28" height="28" viewBox="0 0 28 28" fill="none" xmlns="http://www.w3.org/2000/svg">
  <path
    d="M3.02344 3.5C3.02344 2.191 3.02344 1.5372 3.30484 1.05C3.48914 0.730786 3.75422 0.465706 4.07344 0.2814C4.56064 -4.17233e-08 5.21444 0 6.52344 0H16.3234C17.6324 0 18.2862 -4.17233e-08 18.7734 0.2814C19.0927 0.465706 19.3577 0.730786 19.542 1.05C19.8234 1.5372 19.8234 2.191 19.8234 3.5C19.8234 4.809 19.8234 5.4628 19.542 5.95C19.3577 6.26921 19.0927 6.53429 18.7734 6.7186C18.2862 7 17.6324 7 16.3234 7H6.52344C5.21444 7 4.56064 7 4.07344 6.7186C3.75422 6.53429 3.48914 6.26921 3.30484 5.95C3.02344 5.4628 3.02344 4.809 3.02344 3.5ZM8.62344 19.6V25.2C8.62344 26.5202 8.62344 27.1796 9.03364 27.5898C9.44384 28 10.1032 28 11.4234 28C12.7436 28 13.403 28 13.8132 27.5898C14.2234 27.1796 14.2234 26.5202 14.2234 25.2V19.6C14.2234 18.2798 14.2234 17.6204 13.8132 17.2102C13.403 16.8 12.7436 16.8 11.4234 16.8C10.1032 16.8 9.44384 16.8 9.03364 17.2102C8.62344 17.6204 8.62344 18.2798 8.62344 19.6Z"
    fill="#040404" />
  <path
    d="M21.2859 4.55001C21.9229 4.55001 22.3499 4.55001 22.6803 4.57241C23.0023 4.59341 23.1605 4.63121 23.2641 4.67041C23.7163 4.84961 24.0733 5.20661 24.2511 5.65881C24.2931 5.76241 24.3295 5.92061 24.3505 6.24261C24.3729 6.57301 24.3729 7.00001 24.3729 7.63701C24.3729 8.80881 24.3589 9.13081 24.2735 9.37161C24.1274 9.78466 23.8316 10.1279 23.4447 10.3334C23.2193 10.4538 22.9029 10.5154 21.7437 10.6904L15.9715 11.5556C14.8893 11.718 13.9821 11.8538 13.2639 12.0568C12.5037 12.2696 11.8303 12.5888 11.3053 13.1992C10.4933 14.1428 10.4037 15.3692 10.3799 16.7832V16.8112C10.6739 16.8 11.0169 16.8 11.4229 16.8C11.8359 16.8 12.1831 16.8 12.4799 16.8126C12.5051 15.3244 12.6437 14.8638 12.8971 14.5698C13.0511 14.392 13.2849 14.231 13.8323 14.0784C14.4077 13.916 15.1833 13.7984 16.3481 13.6234L22.2225 12.7414C23.1325 12.6056 23.8437 12.5006 24.4303 12.1884C25.2817 11.7356 25.9322 10.9797 26.2531 10.0702C26.4743 9.44441 26.4743 8.72621 26.4729 7.80641V7.60201C26.4729 7.00841 26.4729 6.51141 26.4463 6.10401C26.4303 5.68881 26.3491 5.27872 26.2055 4.88881C26.0121 4.397 25.7194 3.95028 25.3459 3.57647C24.9723 3.20266 24.5258 2.90976 24.0341 2.71601C23.6437 2.57229 23.2332 2.49102 22.8175 2.47521C22.3185 2.45127 21.819 2.4424 21.3195 2.44861H19.8229V4.54861L21.2859 4.55001Z"
    fill="#b0e0e6" />
  <path fill-rule="evenodd" clip-rule="evenodd"
    d="M1.27295 3.49991C1.27295 3.22144 1.38357 2.95436 1.58049 2.75745C1.7774 2.56054 2.04447 2.44991 2.32295 2.44991H3.02295V4.54991H2.32295C2.04447 4.54991 1.7774 4.43929 1.58049 4.24238C1.38357 4.04546 1.27295 3.77839 1.27295 3.49991Z"
    fill="#b0e0e6" />
</svg>