<svg width="28" height="28" viewBox="0 0 28 28" fill="none" xmlns="http://www.w3.org/2000/svg">
  <path fill-rule="evenodd" clip-rule="evenodd"
    d="M1.32124 0.0820734C0.97368 0.190081 0.508045 0.622823 0.340659 0.993386C0.216459 1.2683 0.210449 1.33589 0.210449 2.45737C0.210449 3.57885 0.216459 3.64644 0.340659 3.92135C0.518486 4.315 0.974287 4.7269 1.35432 4.83743C1.60321 4.90983 2.13778 4.91924 5.24524 4.90617L8.84758 4.89096L9.12763 4.74314C9.4765 4.55907 9.82369 4.17111 9.93679 3.8391C10.061 3.47428 10.061 1.44046 9.93679 1.07564C9.82369 0.743628 9.4765 0.355675 9.12763 0.171597L8.84758 0.0237766L5.21233 0.0131672C2.16369 0.00425313 1.5358 0.0153547 1.32124 0.0820734ZM24.0074 0.463737C23.6595 0.573441 23.1936 1.00695 23.0268 1.3762L22.8966 1.6644V5.30112V8.93784L23.0268 9.22604C23.1072 9.4041 23.2707 9.61821 23.4544 9.78626C23.9 10.1936 24.0955 10.2348 25.4798 10.2133C26.5904 10.196 26.6196 10.1926 26.8939 10.0478C27.0479 9.96657 27.2736 9.78675 27.3954 9.64834C27.8017 9.18667 27.7891 9.32486 27.7891 5.30112C27.7891 1.27738 27.8017 1.41557 27.3954 0.953901C27.2736 0.815487 27.0479 0.635675 26.8939 0.554409C26.6172 0.408394 26.5996 0.406425 25.4385 0.394831C24.5284 0.385698 24.2055 0.40123 24.0074 0.463737ZM19.644 1.23757C16.4666 1.578 13.8085 3.90889 13.0542 7.01639C12.8433 7.8851 12.804 8.79806 12.8218 12.4105L12.8382 15.7191L16.9244 15.7331L21.0106 15.7471V12.5749V9.40268H21.1738H21.3369L21.2968 9.06089C21.2444 8.61546 21.2444 1.98678 21.2968 1.54135L21.3369 1.19956L20.5862 1.20831C20.1732 1.21312 19.7492 1.2263 19.644 1.23757ZM2.38957 13.8593C2.26515 13.9046 1.90847 14.0516 1.59693 14.1858L1.03043 14.43L1.01425 16.305C0.991724 18.9148 1.09707 19.8641 1.55882 21.2109C2.42549 23.7385 4.28744 25.8449 6.66096 26.9828C7.42141 27.3473 7.76432 27.4733 8.54363 27.6744C11.3026 28.3864 14.2086 27.8822 16.6101 26.2749C19.3443 24.4449 21.0106 21.3512 21.0106 18.1047V17.3871H16.9157H12.8208L12.8004 17.9476C12.7767 18.6001 12.668 18.8834 12.2995 19.2541C11.9452 19.6105 11.5612 19.7659 11.0342 19.7659C10.2893 19.7659 9.73338 19.4233 9.40905 18.7646L9.23024 18.4015L9.2029 16.4081L9.17557 14.4148L8.47875 14.1211C7.46864 13.6952 7.39374 13.6934 6.58021 14.0756C5.70038 14.4891 5.25163 14.5839 4.70388 14.4722C4.47095 14.4246 4.05583 14.2706 3.70696 14.1023C3.04452 13.7826 2.74965 13.7282 2.38957 13.8593Z"
    fill="#040404" />
  <path fill-rule="evenodd" clip-rule="evenodd"
    d="M1.00342 9.53353C1.00342 11.2362 1.01648 12.6292 1.0325 12.6292C1.04851 12.6292 1.15304 12.5898 1.26483 12.5417C1.81399 12.3053 2.26433 12.1837 2.69804 12.1548C3.10481 12.1277 3.21562 12.1417 3.58767 12.2672C3.82142 12.3461 4.2149 12.5123 4.4621 12.6367C4.71367 12.7632 4.99595 12.8649 5.10337 12.8677C5.23118 12.8711 5.5144 12.7688 5.95096 12.5616C6.31159 12.3905 6.71731 12.2256 6.85261 12.1951C7.40905 12.0698 8.14255 12.1775 8.84101 12.4869C9.01764 12.5652 9.17142 12.6292 9.18268 12.6292C9.19399 12.6292 9.20323 11.2421 9.20323 9.54687V6.46447L8.9317 6.51385C8.59058 6.57586 1.22929 6.54847 1.09908 6.4847C1.00856 6.44035 1.00342 6.60387 1.00342 9.53353Z"
    fill="#b0e0e6" />
</svg>