<svg width="28" height="28" viewBox="0 0 28 28" fill="none" xmlns="http://www.w3.org/2000/svg">
  <path
    d="M20.7565 16.8192H7.49314C7.36336 16.8182 7.23851 16.8688 7.14603 16.9598C7.05355 17.0509 7.00102 17.1749 7 17.3047V25.5328C7.00183 25.8085 7.1002 26.0749 7.27801 26.2856C7.45582 26.4964 7.70184 26.6382 7.97332 26.6864V27.5004C7.97332 27.566 7.98625 27.6309 8.01136 27.6916C8.03647 27.7522 8.07327 27.8073 8.11967 27.8537C8.16607 27.9001 8.22115 27.9369 8.28177 27.962C8.34239 27.9871 8.40737 28 8.47298 28H9.65392C9.71954 28 9.78451 27.9871 9.84513 27.962C9.90575 27.9369 9.96084 27.9001 10.0072 27.8537C10.0536 27.8073 10.0904 27.7522 10.1155 27.6916C10.1406 27.6309 10.1536 27.566 10.1536 27.5004V26.7083H18.096V27.5004C18.096 27.566 18.1089 27.6309 18.134 27.6916C18.1592 27.7522 18.196 27.8073 18.2423 27.8537C18.2887 27.9001 18.3438 27.9369 18.4044 27.962C18.4651 27.9871 18.53 28 18.5956 28H19.7766C19.8422 28 19.9072 27.9871 19.9678 27.962C20.0284 27.9369 20.0835 27.9001 20.1299 27.8537C20.1763 27.8073 20.2131 27.7522 20.2382 27.6916C20.2633 27.6309 20.2763 27.566 20.2763 27.5004V26.6864C20.5477 26.6382 20.7938 26.4964 20.9716 26.2856C21.1494 26.0749 21.2477 25.8085 21.2496 25.5328V17.3047C21.2486 17.1749 21.196 17.0509 21.1036 16.9598C21.0111 16.8688 20.8862 16.8182 20.7565 16.8192ZM9.39063 22.2241C9.39063 22.3685 9.33327 22.507 9.23116 22.6091C9.12906 22.7112 8.99058 22.7685 8.84618 22.7685C8.70179 22.7685 8.56331 22.7112 8.4612 22.6091C8.3591 22.507 8.30174 22.3685 8.30174 22.2241V18.6463C8.30174 18.5019 8.3591 18.3634 8.4612 18.2613C8.56331 18.1592 8.70179 18.1019 8.84618 18.1019C8.99058 18.1019 9.12906 18.1592 9.23116 18.2613C9.33327 18.3634 9.39063 18.5019 9.39063 18.6463V22.2241ZM16.4626 21.0143C16.5021 21.0248 16.5391 21.0431 16.5716 21.068C16.604 21.0929 16.6313 21.1239 16.6517 21.1594C16.6722 21.1948 16.6854 21.2339 16.6908 21.2744C16.6961 21.315 16.6934 21.3562 16.6828 21.3957C16.6722 21.4352 16.654 21.4722 16.6291 21.5047C16.6042 21.5371 16.5732 21.5643 16.5377 21.5848C16.5023 21.6052 16.4632 21.6185 16.4227 21.6238C16.3821 21.6292 16.3409 21.6265 16.3014 21.6159L15.4152 21.3784L14.7478 21.7637L15.4152 22.149L16.3014 21.9116C16.3812 21.8902 16.4662 21.9014 16.5377 21.9427C16.6093 21.984 16.6615 22.052 16.6828 22.1318C16.7042 22.2116 16.693 22.2966 16.6517 22.3681C16.6104 22.4396 16.5424 22.4918 16.4626 22.5132L16.1781 22.5895L16.5733 22.8177C16.6446 22.8591 16.6966 22.9271 16.7178 23.0068C16.739 23.0865 16.7278 23.1713 16.6866 23.2427C16.6453 23.3141 16.5775 23.3663 16.4979 23.3878C16.4183 23.4092 16.3334 23.3983 16.2618 23.3573L15.8666 23.1291L15.9428 23.4137C15.9533 23.4532 15.956 23.4944 15.9507 23.5349C15.9454 23.5755 15.9321 23.6146 15.9117 23.65C15.8912 23.6854 15.864 23.7165 15.8315 23.7414C15.7991 23.7663 15.7621 23.7845 15.7226 23.7951C15.683 23.8057 15.6418 23.8084 15.6013 23.8031C15.5607 23.7977 15.5216 23.7844 15.4862 23.764C15.4508 23.7435 15.4198 23.7163 15.3949 23.6839C15.37 23.6514 15.3517 23.6144 15.3411 23.5749L15.1038 22.6887L14.4363 22.3032V23.0739L15.085 23.7227C15.114 23.7516 15.1369 23.786 15.1526 23.8238C15.1682 23.8615 15.1763 23.902 15.1763 23.9429C15.1763 23.9838 15.1682 24.0243 15.1526 24.0621C15.1369 24.0999 15.114 24.1342 15.085 24.1631C15.0561 24.1921 15.0218 24.215 14.984 24.2307C14.9462 24.2463 14.9057 24.2544 14.8648 24.2544C14.8239 24.2544 14.7834 24.2463 14.7457 24.2307C14.7079 24.215 14.6735 24.1921 14.6446 24.1631L14.4363 23.9548V24.4112C14.4363 24.4938 14.4035 24.573 14.345 24.6315C14.2866 24.6899 14.2074 24.7227 14.1248 24.7227C14.0422 24.7227 13.9629 24.6899 13.9045 24.6315C13.8461 24.573 13.8133 24.4938 13.8133 24.4112V23.9548L13.6049 24.1631C13.5761 24.1924 13.5418 24.2157 13.5039 24.2316C13.466 24.2475 13.4254 24.2558 13.3843 24.256C13.3432 24.2561 13.3025 24.2481 13.2645 24.2325C13.2265 24.2168 13.192 24.1938 13.1629 24.1647C13.1339 24.1357 13.1109 24.1012 13.0952 24.0632C13.0796 24.0252 13.0716 23.9845 13.0717 23.9434C13.0719 23.9023 13.0802 23.8616 13.0961 23.8238C13.112 23.7859 13.1353 23.7516 13.1646 23.7227L13.8133 23.0739V22.3032L13.1457 22.6887L12.9084 23.5749C12.8871 23.6547 12.8349 23.7227 12.7633 23.764C12.6918 23.8053 12.6068 23.8165 12.527 23.7951C12.4472 23.7737 12.3792 23.7215 12.3379 23.65C12.2966 23.5785 12.2854 23.4935 12.3068 23.4137L12.383 23.1291L11.9877 23.3573C11.9162 23.3983 11.8313 23.4092 11.7517 23.3878C11.6721 23.3663 11.6042 23.3141 11.563 23.2427C11.5218 23.1713 11.5105 23.0865 11.5318 23.0068C11.553 22.9271 11.6049 22.8591 11.6762 22.8177L12.0715 22.5895L11.787 22.5132C11.7475 22.5026 11.7104 22.4843 11.678 22.4595C11.6455 22.4346 11.6183 22.4035 11.5979 22.3681C11.5774 22.3327 11.5641 22.2936 11.5588 22.253C11.5535 22.2125 11.5561 22.1713 11.5667 22.1318C11.5773 22.0923 11.5956 22.0552 11.6205 22.0228C11.6454 21.9904 11.6764 21.9631 11.7118 21.9427C11.7472 21.9222 11.7863 21.909 11.8269 21.9036C11.8674 21.8983 11.9086 21.901 11.9481 21.9116L12.8344 22.149L13.5017 21.7637L12.8344 21.3784L11.9481 21.6159C11.9086 21.6265 11.8674 21.6292 11.8269 21.6238C11.7863 21.6185 11.7472 21.6052 11.7118 21.5848C11.6764 21.5643 11.6454 21.5371 11.6205 21.5047C11.5956 21.4722 11.5773 21.4352 11.5667 21.3957C11.5562 21.3562 11.5535 21.315 11.5588 21.2744C11.5641 21.2339 11.5774 21.1948 11.5979 21.1594C11.6183 21.1239 11.6455 21.0929 11.678 21.068C11.7104 21.0431 11.7475 21.0248 11.787 21.0143L12.0715 20.938L11.6762 20.7098C11.6048 20.6684 11.5526 20.6004 11.5313 20.5207C11.5099 20.4409 11.5211 20.3559 11.5624 20.2844C11.6037 20.2129 11.6717 20.1607 11.7514 20.1393C11.8312 20.1179 11.9162 20.129 11.9877 20.1702L12.383 20.3984L12.3068 20.1138C12.2962 20.0743 12.2935 20.0331 12.2989 19.9925C12.3042 19.952 12.3175 19.9129 12.3379 19.8775C12.3584 19.842 12.3856 19.811 12.418 19.7861C12.4505 19.7612 12.4875 19.7429 12.527 19.7324C12.5665 19.7218 12.6077 19.7191 12.6483 19.7244C12.6888 19.7297 12.7279 19.743 12.7633 19.7635C12.7988 19.7839 12.8298 19.8111 12.8547 19.8436C12.8796 19.876 12.8979 19.9131 12.9084 19.9526L13.1457 20.8388L13.8133 21.2242V20.4535L13.1646 19.8047C13.1069 19.7462 13.0746 19.6672 13.0749 19.585C13.0752 19.5028 13.108 19.4241 13.1661 19.3659C13.2243 19.3078 13.303 19.275 13.3852 19.2747C13.4674 19.2744 13.5464 19.3066 13.6049 19.3643L13.8133 19.5727V19.1163C13.8133 19.0336 13.8461 18.9544 13.9045 18.896C13.9629 18.8376 14.0422 18.8048 14.1248 18.8048C14.2074 18.8048 14.2866 18.8376 14.345 18.896C14.4035 18.9544 14.4363 19.0336 14.4363 19.1163V19.5727L14.6446 19.3643C14.703 19.3059 14.7822 19.2731 14.8648 19.2731C14.9474 19.2731 15.0266 19.3059 15.085 19.3643C15.1434 19.4227 15.1763 19.5019 15.1763 19.5845C15.1763 19.6671 15.1434 19.7463 15.085 19.8047L14.4363 20.4535V21.2242L15.1038 20.8388L15.3411 19.9526C15.3517 19.9131 15.37 19.876 15.3949 19.8436C15.4198 19.8111 15.4508 19.7839 15.4862 19.7635C15.5217 19.743 15.5608 19.7297 15.6013 19.7244C15.6419 19.7191 15.6831 19.7218 15.7226 19.7324C15.7621 19.7429 15.7991 19.7612 15.8315 19.7861C15.864 19.811 15.8912 19.842 15.9117 19.8775C15.9321 19.9129 15.9454 19.952 15.9507 19.9925C15.9561 20.0331 15.9534 20.0743 15.9428 20.1138L15.8666 20.3984L16.2619 20.1702C16.3334 20.129 16.4184 20.1179 16.4981 20.1393C16.5779 20.1607 16.6459 20.2129 16.6871 20.2844C16.7284 20.3559 16.7396 20.4409 16.7183 20.5206C16.697 20.6004 16.6448 20.6684 16.5733 20.7098L16.1781 20.938L16.4626 21.0143Z"
    fill="#b0e0e6" />
  <path
    d="M19.6144 0H8.63521C8.41993 0.000538214 8.20687 0.0434729 8.00819 0.126353C7.8095 0.209232 7.62909 0.330434 7.47725 0.483038C7.3254 0.635642 7.20511 0.816658 7.12322 1.01575C7.04134 1.21485 6.99947 1.42812 7.00001 1.6434V15.0777C6.99968 15.2088 7.05145 15.3347 7.14394 15.4277C7.23642 15.5206 7.36204 15.573 7.49316 15.5733H20.7565C20.8876 15.573 21.0132 15.5206 21.1057 15.4276C21.1982 15.3347 21.25 15.2088 21.2496 15.0777V1.6434C21.2502 1.42812 21.2083 1.21485 21.1264 1.01575C21.0445 0.816653 20.9242 0.635635 20.7724 0.483031C20.6205 0.330427 20.4401 0.209226 20.2414 0.126347C20.0427 0.0434687 19.8297 0.000535766 19.6144 0ZM9.39065 13.4352C9.39065 13.5796 9.33329 13.7181 9.23119 13.8202C9.12908 13.9223 8.9906 13.9796 8.84621 13.9796C8.70181 13.9796 8.56333 13.9223 8.46123 13.8202C8.35912 13.7181 8.30176 13.5796 8.30176 13.4352V9.85742C8.30176 9.71303 8.35912 9.57455 8.46123 9.47244C8.56333 9.37034 8.70181 9.31298 8.84621 9.31298C8.9906 9.31298 9.12908 9.37034 9.23119 9.47244C9.33329 9.57455 9.39065 9.71303 9.39065 9.85742V13.4352Z"
    fill="#040404" />
</svg>