<svg width="28" height="28" viewBox="0 0 28 28" fill="none" xmlns="http://www.w3.org/2000/svg">
  <path
    d="M21.8882 1.87273H20.5931H10.8829V6.03826H10.4978V1.87273V1.36517H10.8059C10.9634 1.36517 11.0929 1.23565 11.0929 1.07814V0.287036C11.0929 0.129516 10.9634 0 10.8059 0H7.00788C6.85036 0 6.72084 0.129516 6.72084 0.287036V1.07814C6.72084 1.23565 6.85036 1.36517 7.00788 1.36517H7.2109V1.87273V6.03826H6.82585V1.87273H5.94024L0 13.6937H15.948L21.2407 3.1644L26.5298 13.6972H27.8495L21.9092 1.87273H21.8882Z"
    fill="#b0e0e6" />
  <path
    d="M21.2407 12.206C21.7202 12.206 22.1088 11.4464 22.1088 10.5118C22.1088 9.5772 21.7202 8.8176 21.2407 8.8176C20.7611 8.8176 20.3726 9.5772 20.3726 10.5118C20.3726 11.4464 20.7611 12.206 21.2407 12.206Z"
    fill="#040404" />
  <path
    d="M13.9244 21.1076C10.3365 21.1076 7.37858 18.3983 7.01454 14.8664H0.0556641V16.1615L3.03104 17.1101C3.15005 17.1486 3.24806 17.2467 3.29007 17.3762C3.5316 18.1393 3.80463 18.7903 4.11967 19.3644C4.18268 19.4764 4.19318 19.6235 4.12667 19.7425L2.69499 22.5183L5.55835 25.3817L8.3272 23.95C8.44621 23.887 8.58623 23.887 8.70525 23.95C9.30732 24.272 9.98291 24.5521 10.6935 24.7866C10.823 24.8251 10.9175 24.9231 10.9595 25.0456L11.8976 28H15.9582L16.8998 25.0386C16.9418 24.9196 17.0363 24.8216 17.1658 24.7796C17.8729 24.5451 18.5415 24.265 19.1541 23.943C19.2731 23.88 19.4131 23.88 19.5321 23.943L22.2974 25.3747L25.1678 22.5113L23.7291 19.7355C23.6661 19.6164 23.6731 19.4694 23.7361 19.3574C24.0652 18.7553 24.3487 18.0868 24.5657 17.3692C24.5972 17.2397 24.7023 17.1451 24.8248 17.1031L27.7931 16.1545V14.8594H20.8413C20.4807 18.3948 17.5194 21.1076 13.9244 21.1076Z"
    fill="#040404" />
</svg>