<svg width="28" height="28" viewBox="0 0 28 28" fill="none" xmlns="http://www.w3.org/2000/svg">
  <path fill-rule="evenodd" clip-rule="evenodd"
    d="M0.4072 4.12316C0.306711 4.19095 0.173983 4.33236 0.112237 4.43749C0.000382107 4.62805 0 4.65544 0 12.8011C0 20.8766 0.00130896 20.9757 0.109284 21.155C0.243706 21.3782 0.484518 21.5321 0.73757 21.5564L0.928711 21.5749L0.965923 21.1993C1.04062 20.4455 1.24663 19.8531 1.65197 19.2262C2.08359 18.5587 2.675 18.0484 3.42918 17.6925C3.96933 17.4377 4.38166 17.3366 5.0294 17.3C6.28603 17.2292 7.46731 17.706 8.34176 18.637C8.99595 19.3335 9.35523 20.0954 9.49506 21.0829L9.56478 21.5749H12.8969H16.229L16.2433 13.2658C16.2529 7.61676 16.2391 4.86737 16.2001 4.67779C16.1426 4.39829 15.9862 4.19444 15.7272 4.06133C15.6406 4.01689 13.5425 4 8.09887 4H0.589927L0.4072 4.12316ZM8.36662 6.46229C8.55793 6.53504 13.3626 9.53895 13.5789 9.72099C13.8893 9.98229 13.9277 10.5059 13.6597 10.8245C13.4768 11.0419 13.2484 11.1254 12.9224 11.0941L12.6499 11.0679V12.9753C12.6499 14.7791 12.6439 14.8944 12.5399 15.0985C12.4691 15.2374 12.353 15.3535 12.2142 15.4243C12.004 15.5316 11.8994 15.5344 8.11046 15.5344C4.25151 15.5344 4.22085 15.5335 4.01649 15.4186C3.90321 15.3549 3.75851 15.2101 3.69485 15.0968C3.58311 14.8979 3.57912 14.825 3.57912 12.9815V11.0721L3.26492 11.0942C3.0028 11.1125 2.91903 11.0948 2.75948 10.9873C2.38216 10.7329 2.27211 10.2018 2.52522 9.85661C2.62571 9.71951 7.30031 6.73299 7.75932 6.51263C8.00865 6.39292 8.15281 6.381 8.36662 6.46229ZM18.8655 14.8646L17.8956 14.8809V18.2443V21.6077L18.2095 21.5913L18.5234 21.5749L18.5651 21.2742C18.7373 20.0328 19.1342 19.2057 19.908 18.4755C20.7997 17.6339 21.873 17.2333 23.0571 17.3C23.7488 17.339 24.1337 17.44 24.7533 17.745C26.085 18.4006 27.0051 19.7133 27.1129 21.1116C27.145 21.5285 27.1523 21.5475 27.2802 21.5475C27.4748 21.5475 27.7215 21.3842 27.8581 21.1649C27.9679 20.9885 27.9787 20.8902 27.9958 19.9076C28.0354 17.6315 27.8064 16.8108 26.872 15.8794C26.3855 15.3944 25.698 15.0295 25.0354 14.9045C24.6188 14.826 22.1307 14.8098 18.8655 14.8646ZM4.56882 19.01C3.65895 19.2548 2.91494 20.0027 2.66992 20.9189C2.62975 21.0692 2.59685 21.3644 2.59685 21.5749C2.59685 23.5692 4.73493 24.8494 6.49843 23.911C6.90224 23.6961 7.41649 23.1551 7.61741 22.7339C8.10586 21.7101 7.90768 20.5281 7.11224 19.7207C6.44155 19.0399 5.46846 18.768 4.56882 19.01ZM22.2307 19.0014C20.9211 19.3191 20.0087 20.682 20.2397 21.9753C20.6177 24.0911 23.1159 24.9565 24.6516 23.5035C25.2324 22.954 25.491 22.3598 25.491 21.5749C25.491 20.7899 25.2324 20.1958 24.6516 19.6463C24.0069 19.0363 23.0917 18.7925 22.2307 19.0014Z"
    fill="#040404" />
  <path fill-rule="evenodd" clip-rule="evenodd"
    d="M17.8955 10.8144V13.2558L19.2978 13.2197C20.069 13.1998 21.493 13.1836 22.4622 13.1836H24.2244L23.4574 11.53C23.0356 10.6205 22.6212 9.77555 22.5364 9.65234C22.3012 9.31019 21.8102 8.88894 21.4322 8.70493C20.8284 8.41105 20.5693 8.37306 19.1681 8.37306H17.8955V10.8144Z"
    fill="#b0e0e6" />
  <path fill-rule="evenodd" clip-rule="evenodd"
    d="M6.65313 9.11847L5.21875 10.0225V11.9584V13.8943H8.11555H11.0123L10.998 11.9455L10.9836 9.99666L9.56288 9.1048C8.78148 8.61423 8.12986 8.21321 8.11484 8.21365C8.09981 8.21408 7.44207 8.62123 6.65313 9.11847Z"
    fill="#b0e0e6" />
</svg>