<svg width="28" height="28" viewBox="0 0 28 28" fill="none" xmlns="http://www.w3.org/2000/svg">
  <path d="M15.046 6.05646H8.76904V8.79941H15.046V6.05646Z" fill="#040404" />
  <path d="M13.6307 2.08191H10.123V4.99279H13.6307V2.08191Z" fill="#040404" />
  <path
    d="M16.2766 2.19389L21.5074 1.07432C21.8151 1.01834 21.9997 0.738447 21.9382 0.402575C21.8766 0.122683 21.5689 -0.045253 21.1997 0.0107256L15.9689 1.1303C15.6612 1.18628 15.4766 1.46617 15.5382 1.80204C15.5997 2.08193 15.9689 2.24987 16.2766 2.19389Z"
    fill="#040404" />
  <path
    d="M16.154 4.04114H21.3847C21.6924 4.04114 22.0001 3.81723 22.0001 3.48136C22.0001 3.14548 21.754 2.92157 21.3847 2.92157H16.154C15.8463 2.92157 15.5386 3.14548 15.5386 3.48136C15.5386 3.81723 15.7847 4.04114 16.154 4.04114Z"
    fill="#040404" />
  <path
    d="M21.4464 6.00041L16.2156 4.88084C15.9079 4.82486 15.6002 4.9928 15.4771 5.27269C15.4156 5.55259 15.6002 5.83248 15.9079 5.94444L21.1387 7.06401C21.4464 7.11999 21.754 6.95205 21.8771 6.67216C22.0002 6.33628 21.8156 6.05639 21.4464 6.00041Z"
    fill="#040404" />
  <path
    d="M16.0923 13.1097C14.9846 12.27 14.2462 11.1504 14 9.9189H9.75385C9.56923 11.1504 8.76923 12.27 7.66154 13.1097C6.67692 13.8374 6 14.957 6 16.2445V26.9924C6 27.5521 6.49231 28 7.10769 28H16.5231C17.1385 28 17.6308 27.5521 17.6308 26.9924V16.2445C17.6923 14.957 17.0769 13.8374 16.0923 13.1097ZM11.9077 26.2087C9.75385 26.2087 8.09231 23.8016 8.09231 20.7228C8.09231 17.6439 9.75385 15.2369 11.9077 15.2369C14.0615 15.2369 15.7231 17.6439 15.7231 20.7228C15.6615 23.8016 14 26.2087 11.9077 26.2087Z"
    fill="#040404" />
  <path
    d="M11.9079 16.3005C10.4925 16.3005 9.32324 18.3157 9.32324 20.6668C9.32324 23.0739 10.4925 25.0891 11.9079 25.0891C13.3232 25.0891 14.4925 23.0739 14.4925 20.6668C14.4925 18.3157 13.3232 16.3005 11.9079 16.3005Z"
    fill="#b0e0e6" />
</svg>