<svg width="18" height="18" viewBox="0 0 18 18" fill="none" xmlns="http://www.w3.org/2000/svg">
<path d="M5.04167 7.33329C5.04167 6.98811 5.32149 6.70829 5.66667 6.70829H8.16667C8.51184 6.70829 8.79167 6.98811 8.79167 7.33329C8.79167 7.67847 8.51184 7.95829 8.16667 7.95829H5.66667C5.32149 7.95829 5.04167 7.67847 5.04167 7.33329Z" fill="#8D8E90"/>
<path d="M5.04167 10.6666C5.04167 10.3214 5.32149 10.0416 5.66667 10.0416H12.3333C12.6785 10.0416 12.9583 10.3214 12.9583 10.6666C12.9583 11.0118 12.6785 11.2916 12.3333 11.2916H5.66667C5.32149 11.2916 5.04167 11.0118 5.04167 10.6666Z" fill="#8D8E90"/>
<path d="M5.04167 14C5.04167 13.6548 5.32149 13.375 5.66667 13.375H8.16667C8.51184 13.375 8.79167 13.6548 8.79167 14C8.79167 14.3451 8.51184 14.625 8.16667 14.625H5.66667C5.32149 14.625 5.04167 14.3451 5.04167 14Z" fill="#8D8E90"/>
<path fill-rule="evenodd" clip-rule="evenodd" d="M12.3603 0.111396C13.2558 0.181769 14.004 0.326397 14.6485 0.651358C14.8243 0.740034 14.991 0.84135 15.1498 0.956753C15.5566 1.2523 15.9143 1.61003 16.2099 2.01682C16.6981 2.68876 16.9167 3.47574 17.0219 4.44702C17.125 5.3988 17.125 6.59846 17.125 8.1289V9.87102C17.125 11.4015 17.125 12.6011 17.0219 13.5529C16.9167 14.5242 16.6981 15.3112 16.2099 15.9831C15.9143 16.3899 15.5566 16.7476 15.1498 17.0432C14.4779 17.5314 13.6909 17.75 12.7196 17.8552C11.7678 17.9583 10.5682 17.9583 9.03773 17.9583H8.96227C7.43184 17.9583 6.23217 17.9583 5.2804 17.8552C4.30912 17.75 3.52213 17.5314 2.8502 17.0432C2.44341 16.7476 2.08568 16.3899 1.79013 15.9831C1.30194 15.3112 1.08334 14.5242 0.978107 13.5529C0.874988 12.6011 0.874993 11.4014 0.875 9.871V8.12892C0.874993 6.59847 0.874988 5.3988 0.978107 4.44702C1.08334 3.47574 1.30194 2.68876 1.79013 2.01682C2.08568 1.61003 2.44341 1.2523 2.8502 0.956753C3.15658 0.734154 3.48916 0.565985 3.85633 0.439297C4.46361 0.229759 5.16393 0.134686 5.98737 0.0880617C6.80751 0.0416241 7.7937 0.041625 8.98301 0.041626H9.02541C10.3795 0.0416233 11.4724 0.041621 12.3603 0.111396ZM12.2624 1.35755C11.4291 1.29207 10.3848 1.29163 9 1.29163C7.7904 1.29163 6.8389 1.29185 6.05803 1.33606C5.78593 1.35147 5.53992 1.37202 5.31597 1.39876C6.0091 2.08372 6.56598 2.6121 7.0631 3.00998C7.73178 3.54516 8.23716 3.79764 8.74927 3.87875C9.11634 3.93688 9.49027 3.93688 9.85734 3.87875C10.3552 3.7999 10.8467 3.55908 11.488 3.05404C11.9778 2.66831 12.5257 2.15266 13.2077 1.48065C12.9363 1.42628 12.6252 1.38606 12.2624 1.35755ZM14.4591 2.0005C13.6022 2.85334 12.8974 3.53521 12.2614 4.03607C11.5316 4.6108 10.843 4.98821 10.0529 5.11336C9.55626 5.19201 9.05035 5.19201 8.55372 5.11336C7.74087 4.98461 7.03536 4.58884 6.28201 3.98589C5.60746 3.446 4.85072 2.70295 3.914 1.76765C3.79633 1.82701 3.68749 1.8935 3.58493 1.96802C3.28426 2.18647 3.01985 2.45088 2.8014 2.75155C2.49383 3.17489 2.31454 3.71674 2.22083 4.58166C2.12586 5.45829 2.125 6.59032 2.125 8.16663V9.83329C2.125 11.4096 2.12586 12.5416 2.22083 13.4183C2.31454 14.2832 2.49383 14.825 2.8014 15.2484C3.01985 15.549 3.28426 15.8134 3.58493 16.0319C4.00826 16.3395 4.55011 16.5188 5.41504 16.6125C6.29166 16.7074 7.42369 16.7083 9 16.7083C10.5763 16.7083 11.7083 16.7074 12.585 16.6125C13.4499 16.5188 13.9917 16.3395 14.4151 16.0319C14.7157 15.8134 14.9802 15.549 15.1986 15.2484C15.5062 14.825 15.6855 14.2832 15.7792 13.4183C15.8741 12.5416 15.875 11.4096 15.875 9.83329V8.16663C15.875 6.59032 15.8741 5.45829 15.7792 4.58166C15.6855 3.71674 15.5062 3.17489 15.1986 2.75155C14.9909 2.46563 14.7416 2.2125 14.4591 2.0005Z" fill="#8D8E90"/>
</svg>
