<svg width="14" height="18" viewBox="0 0 14 18" fill="none" xmlns="http://www.w3.org/2000/svg">
<path fill-rule="evenodd" clip-rule="evenodd" d="M6.99984 0.041626C4.81371 0.041626 3.0415 1.81383 3.0415 3.99996C3.0415 6.18609 4.81371 7.95829 6.99984 7.95829C9.18597 7.95829 10.9582 6.18609 10.9582 3.99996C10.9582 1.81383 9.18597 0.041626 6.99984 0.041626ZM4.2915 3.99996C4.2915 2.50419 5.50407 1.29163 6.99984 1.29163C8.49561 1.29163 9.70817 2.50419 9.70817 3.99996C9.70817 5.49573 8.49561 6.70829 6.99984 6.70829C5.50407 6.70829 4.2915 5.49573 4.2915 3.99996Z" fill="#8D8E90"/>
<path fill-rule="evenodd" clip-rule="evenodd" d="M4.49984 9.20829C2.31371 9.20829 0.541504 10.9805 0.541504 13.1666C0.541504 15.3528 2.31371 17.125 4.49984 17.125H9.49984C11.686 17.125 13.4582 15.3528 13.4582 13.1666C13.4582 10.9805 11.686 9.20829 9.49984 9.20829H4.49984ZM1.7915 13.1666C1.7915 11.6709 3.00407 10.4583 4.49984 10.4583H9.49984C10.9956 10.4583 12.2082 11.6709 12.2082 13.1666C12.2082 14.6624 10.9956 15.875 9.49984 15.875H4.49984C3.00407 15.875 1.7915 14.6624 1.7915 13.1666Z" fill="#8D8E90"/>
</svg>
