<svg width="160" height="180" viewBox="0 0 160 180" fill="none" xmlns="http://www.w3.org/2000/svg">
  <path
    d="M85.1897 0L39.084 46.1951H64.1026L84.8323 25.4654L117.625 58.347V102.13H56.7757V119.911H135.674V50.5733L85.1897 0Z"
    fill="#040404" />
  <path
    d="M34.2592 69.8735V120H52.3056V63.1027H59.7562L60.394 64.6955C61.2087 66.7297 63.1794 68.0634 65.3709 68.0634H73.6635V48.9651H62.9847C60.4394 49.4118 60.0044 51.6108 59.7562 52.9336H52.3056V48.9651H29.4341C17.9077 50.4841 10.0447 57.2748 4.32617 67.3193C14.6574 61.3666 22.8694 61.0359 27.7536 61.6145C32.3828 62.1631 34.2592 65.3165 34.2592 69.8735Z"
    fill="#b0e0e6" />
  <path d="M82.9568 50.752H75.8086V57.9001H82.9568V50.752Z" fill="#040404" />
  <path d="M91.6819 50.752H84.5337V57.9001H91.6819V50.752Z" fill="#040404" />
  <path d="M82.9568 59.4763H75.8086V66.6245H82.9568V59.4763Z" fill="#040404" />
  <path d="M91.6819 59.4763H84.5337V66.6245H91.6819V59.4763Z" fill="#040404" />
  <path
    d="M5.40882 171V149.182H9.36124V158.418H19.4713V149.182H23.4344V171H19.4713V161.732H9.36124V171H5.40882ZM32.2714 171.33C31.2345 171.33 30.3005 171.146 29.4695 170.776C28.6457 170.4 27.9923 169.846 27.5093 169.114C27.0335 168.383 26.7955 167.481 26.7955 166.408C26.7955 165.485 26.966 164.722 27.3069 164.118C27.6478 163.514 28.113 163.031 28.7025 162.669C29.292 162.307 29.9561 162.033 30.6947 161.849C31.4404 161.657 32.211 161.518 33.0065 161.433C33.9653 161.334 34.743 161.245 35.3396 161.167C35.9362 161.082 36.3694 160.954 36.6393 160.783C36.9163 160.606 37.0548 160.332 37.0548 159.963V159.899C37.0548 159.097 36.8169 158.475 36.341 158.035C35.8651 157.594 35.1798 157.374 34.2849 157.374C33.3403 157.374 32.591 157.58 32.037 157.992C31.4901 158.404 31.1208 158.891 30.9291 159.452L27.3282 158.94C27.6123 157.946 28.0811 157.115 28.7345 156.447C29.3879 155.773 30.1869 155.268 31.1315 154.935C32.0761 154.594 33.1201 154.423 34.2636 154.423C35.0519 154.423 35.8367 154.516 36.618 154.7C37.3992 154.885 38.113 155.19 38.7593 155.616C39.4056 156.036 39.9241 156.607 40.3147 157.332C40.7124 158.056 40.9113 158.962 40.9113 160.048V171H37.2039V168.752H37.0761C36.8417 169.207 36.5115 169.633 36.0853 170.031C35.6663 170.421 35.1372 170.737 34.498 170.979C33.8659 171.213 33.1237 171.33 32.2714 171.33ZM33.2728 168.496C34.047 168.496 34.7181 168.344 35.2863 168.038C35.8545 167.726 36.2913 167.314 36.5967 166.803C36.9092 166.291 37.0654 165.734 37.0654 165.13V163.202C36.9447 163.301 36.7387 163.393 36.4475 163.479C36.1634 163.564 35.8438 163.638 35.4887 163.702C35.1336 163.766 34.782 163.823 34.434 163.873C34.086 163.923 33.7842 163.965 33.5285 164.001C32.9532 164.079 32.4383 164.207 31.9838 164.384C31.5292 164.562 31.1705 164.81 30.9078 165.13C30.645 165.442 30.5136 165.847 30.5136 166.344C30.5136 167.055 30.7728 167.591 31.2913 167.953C31.8097 168.315 32.4703 168.496 33.2728 168.496ZM48.6457 161.412V171H44.7892V154.636H48.4752V157.417H48.667C49.0434 156.501 49.6436 155.773 50.4674 155.233C51.2984 154.693 52.3247 154.423 53.5463 154.423C54.6755 154.423 55.6592 154.665 56.4972 155.148C57.3424 155.631 57.9958 156.33 58.4575 157.246C58.9262 158.163 59.157 159.274 59.1499 160.581V171H55.2934V161.178C55.2934 160.084 55.0093 159.228 54.4411 158.61C53.8801 157.992 53.1024 157.683 52.108 157.683C51.4333 157.683 50.8332 157.832 50.3076 158.131C49.7892 158.422 49.3808 158.844 49.0825 159.398C48.7913 159.952 48.6457 160.624 48.6457 161.412ZM69.1428 171.288C67.8573 171.288 66.7068 170.957 65.6911 170.297C64.6755 169.636 63.873 168.678 63.2835 167.42C62.694 166.163 62.3992 164.636 62.3992 162.839C62.3992 161.021 62.6975 159.487 63.2941 158.237C63.8978 156.98 64.711 156.032 65.7338 155.393C66.7565 154.746 67.8964 154.423 69.1535 154.423C70.1123 154.423 70.9007 154.587 71.5186 154.913C72.1365 155.233 72.6265 155.62 72.9887 156.075C73.3509 156.522 73.6315 156.945 73.8303 157.342H73.9901V149.182H77.8573V171H74.0647V168.422H73.8303C73.6315 168.82 73.3438 169.242 72.9674 169.69C72.591 170.13 72.0938 170.506 71.4759 170.819C70.858 171.131 70.0803 171.288 69.1428 171.288ZM70.2188 168.124C71.0356 168.124 71.7316 167.903 72.3069 167.463C72.8822 167.016 73.319 166.394 73.6173 165.599C73.9156 164.803 74.0647 163.876 74.0647 162.818C74.0647 161.76 73.9156 160.84 73.6173 160.059C73.3261 159.278 72.8928 158.67 72.3176 158.237C71.7494 157.804 71.0498 157.587 70.2188 157.587C69.3595 157.587 68.6421 157.811 68.0669 158.259C67.4916 158.706 67.0583 159.324 66.7671 160.112C66.4759 160.901 66.3303 161.803 66.3303 162.818C66.3303 163.841 66.4759 164.754 66.7671 165.556C67.0654 166.352 67.5022 166.98 68.0775 167.442C68.6599 167.896 69.3737 168.124 70.2188 168.124ZM84.3639 177.136C83.8383 177.136 83.3518 177.094 82.9044 177.009C82.464 176.93 82.1125 176.838 81.8497 176.732L82.7446 173.727C83.3057 173.891 83.8064 173.969 84.2467 173.962C84.6871 173.955 85.0741 173.816 85.4079 173.546C85.7488 173.283 86.0365 172.843 86.2709 172.225L86.6011 171.341L80.6672 154.636H84.7581L88.5294 166.994H88.6998L92.4818 154.636H96.5834L90.0315 172.982C89.7261 173.848 89.3213 174.59 88.817 175.208C88.3128 175.833 87.6949 176.309 86.9633 176.636C86.2389 176.969 85.3724 177.136 84.3639 177.136ZM99.4225 171V149.182H103.375V158.418H113.485V149.182H117.448V171H113.485V161.732H103.375V171H99.4225ZM132.006 164.118V154.636H135.862V171H132.123V168.092H131.953C131.583 169.008 130.976 169.757 130.131 170.339C129.293 170.922 128.259 171.213 127.031 171.213C125.958 171.213 125.01 170.975 124.186 170.499C123.37 170.016 122.73 169.317 122.269 168.401C121.807 167.477 121.576 166.362 121.576 165.055V154.636H125.433V164.459C125.433 165.496 125.717 166.32 126.285 166.93C126.853 167.541 127.599 167.847 128.522 167.847C129.09 167.847 129.641 167.708 130.174 167.431C130.706 167.154 131.143 166.742 131.484 166.195C131.832 165.641 132.006 164.949 132.006 164.118ZM139.999 171V149.182H143.855V157.342H144.015C144.214 156.945 144.494 156.522 144.857 156.075C145.219 155.62 145.709 155.233 146.327 154.913C146.945 154.587 147.733 154.423 148.692 154.423C149.956 154.423 151.096 154.746 152.112 155.393C153.134 156.032 153.944 156.98 154.541 158.237C155.144 159.487 155.446 161.021 155.446 162.839C155.446 164.636 155.151 166.163 154.562 167.42C153.972 168.678 153.17 169.636 152.154 170.297C151.139 170.957 149.988 171.288 148.703 171.288C147.765 171.288 146.987 171.131 146.369 170.819C145.752 170.506 145.254 170.13 144.878 169.69C144.509 169.242 144.221 168.82 144.015 168.422H143.791V171H139.999ZM143.781 162.818C143.781 163.876 143.93 164.803 144.228 165.599C144.533 166.394 144.97 167.016 145.538 167.463C146.114 167.903 146.81 168.124 147.627 168.124C148.479 168.124 149.193 167.896 149.768 167.442C150.343 166.98 150.776 166.352 151.068 165.556C151.366 164.754 151.515 163.841 151.515 162.818C151.515 161.803 151.369 160.901 151.078 160.112C150.787 159.324 150.354 158.706 149.778 158.259C149.203 157.811 148.486 157.587 147.627 157.587C146.803 157.587 146.103 157.804 145.528 158.237C144.953 158.67 144.516 159.278 144.217 160.059C143.926 160.84 143.781 161.76 143.781 162.818Z"
    fill="#040404" />
</svg>