<svg xmlns="http://www.w3.org/2000/svg" width="81" height="80" viewBox="0 0 81 80" fill="none">
  <path
    d="M22.4347 39.5801H15.153C13.4963 39.5801 12.1475 40.9277 12.1475 42.5844V48.9528C12.1475 50.6095 13.4963 51.9571 15.153 51.9571H22.4347C24.0914 51.9571 25.4391 50.6095 25.4391 48.9528V42.5844C25.4391 40.9277 24.0914 39.5801 22.4347 39.5801ZM23.0861 48.9528C23.0861 49.3124 22.7943 49.6042 22.4347 49.6042H15.153C14.7934 49.6042 14.5004 49.3124 14.5004 48.9528V42.5844C14.5004 42.2248 14.7934 41.933 15.153 41.933H22.4347C22.7943 41.933 23.0861 42.2248 23.0861 42.5844V48.9528Z"
    fill="" />
  <path
    d="M22.4347 23.5293H15.153C13.4963 23.5293 12.1475 24.877 12.1475 26.5337V32.902C12.1475 34.5587 13.4963 35.9064 15.153 35.9064H22.4347C24.0914 35.9064 25.4391 34.5587 25.4391 32.902V26.5337C25.4391 24.877 24.0914 23.5293 22.4347 23.5293ZM23.0861 32.902C23.0861 33.2616 22.7943 33.5534 22.4347 33.5534H15.153C14.7934 33.5534 14.5004 33.2616 14.5004 32.902V26.5337C14.5004 26.1741 14.7934 25.8822 15.153 25.8822H22.4347C22.7943 25.8822 23.0861 26.1741 23.0861 26.5337V32.902Z"
    fill="" />
  <path
    d="M22.4347 55.2778H15.153C13.4963 55.2778 12.1475 56.6255 12.1475 58.2822V64.6505C12.1475 66.3072 13.4963 67.6549 15.153 67.6549H22.4347C24.0914 67.6549 25.4391 66.3072 25.4391 64.6505V58.2822C25.4391 56.6255 24.0914 55.2778 22.4347 55.2778ZM23.0861 64.6505C23.0861 65.0101 22.7943 65.302 22.4347 65.302H15.153C14.7934 65.302 14.5004 65.0101 14.5004 64.6505V58.2822C14.5004 57.9226 14.7934 57.6308 15.153 57.6308H22.4347C22.7943 57.6308 23.0861 57.9226 23.0861 58.2822V64.6505Z"
    fill="" />
  <path
    d="M29.7476 43.1418C29.7476 43.7921 30.2738 44.3183 30.924 44.3183H49.5074C50.1577 44.3183 50.6839 43.7921 50.6839 43.1418C50.6839 42.4915 50.1577 41.9653 49.5074 41.9653H30.924C30.2738 41.9653 29.7476 42.4915 29.7476 43.1418Z"
    fill="" />
  <path
    d="M29.7476 27.0905C29.7476 27.7408 30.2738 28.267 30.924 28.267H49.5074C50.1577 28.267 50.6839 27.7408 50.6839 27.0905C50.6839 26.4403 50.1577 25.9141 49.5074 25.9141H30.924C30.2738 25.9141 29.7476 26.4403 29.7476 27.0905Z"
    fill="" />
  <path
    d="M30.924 47.2207C30.2738 47.2207 29.7476 47.7469 29.7476 48.3972C29.7476 49.0474 30.2738 49.5736 30.924 49.5736H40.8712C41.5215 49.5736 42.0476 49.0474 42.0476 48.3972C42.0476 47.7469 41.5215 47.2207 40.8712 47.2207H30.924Z"
    fill="" />
  <path
    d="M30.924 31.1694C30.2738 31.1694 29.7476 31.6956 29.7476 32.3459C29.7476 32.9962 30.2738 33.5224 30.924 33.5224H40.8712C41.5215 33.5224 42.0476 32.9962 42.0476 32.3459C42.0476 31.6956 41.5215 31.1694 40.8712 31.1694H30.924Z"
    fill="" />
  <path
    d="M42.4544 57.6616H30.924C30.2738 57.6616 29.7476 58.1878 29.7476 58.8381C29.7476 59.4884 30.2738 60.0146 30.924 60.0146H42.4544C43.1046 60.0146 43.6308 59.4884 43.6308 58.8381C43.6308 58.1878 43.1046 57.6616 42.4544 57.6616Z"
    fill="" />
  <path
    d="M40.8712 62.918H30.924C30.2738 62.918 29.7476 63.4442 29.7476 64.0944C29.7476 64.7447 30.2738 65.2709 30.924 65.2709H40.8712C41.5215 65.2709 42.0476 64.7447 42.0476 64.0944C42.0476 63.4442 41.5215 62.918 40.8712 62.918Z"
    fill="" />
  <path
    d="M73.3017 25.7409C70.358 23.9164 66.4681 24.8347 64.6546 27.7997L58.8311 37.2821V19.7997C58.8311 15.6233 55.4311 12.2351 51.2546 12.2351H45.8546V10.988C45.8546 9.1527 44.3604 7.65856 42.5251 7.65856H39.0546C38.431 4.16448 35.4193 1.56445 31.7605 1.56445C28.1017 1.56445 25.0899 4.16448 24.4664 7.65856H20.9957C19.1722 7.65856 17.6781 9.1527 17.6781 10.988V12.2351H12.2781C8.10168 12.2351 4.70166 15.6233 4.70166 19.7997V70.8468C4.70166 75.0351 8.10168 78.4351 12.2781 78.4351H51.2546C55.4311 78.4351 58.8311 75.0351 58.8311 70.8468V60.5645C59.7829 59.6709 60.5687 58.5178 60.6193 58.3997L75.3723 34.388C77.184 31.4351 76.2546 27.5527 73.3017 25.7409ZM20.031 10.988C20.031 10.4468 20.4663 10.0115 20.9957 10.0115H25.5369C26.1722 10.0115 26.7017 9.50563 26.7134 8.85859C26.7723 6.08213 28.9957 3.91739 31.7605 3.91739C34.5252 3.91739 36.7487 6.09391 36.8193 8.87036C36.8428 9.50563 37.3605 10.0115 37.9958 10.0115H42.5251C43.0546 10.0115 43.5016 10.4468 43.5016 10.988V15.4351C43.5016 15.9762 43.0546 16.4115 42.5251 16.4115H20.9957C20.4663 16.4115 20.031 15.9762 20.031 15.4351V10.988ZM56.4781 70.8468C56.4781 73.7292 54.137 76.0821 51.2546 76.0821H12.2781C9.39577 76.0821 7.0546 73.7292 7.0546 70.8468V19.7997C7.0546 16.9174 9.39577 14.588 12.2781 14.588H17.6781V15.4351C17.6781 17.2704 19.1722 18.7644 20.9957 18.7644H42.5251C44.3604 18.7644 45.8546 17.2704 45.8546 15.4351V14.588H51.2546C54.137 14.588 56.4781 16.9174 56.4781 19.7997V41.1056C56.4249 41.1927 49.4713 52.5883 49.4311 52.6821C49.302 53.0694 48.5549 54.4357 48.4075 56.388L47.831 63.4939C47.7605 64.3174 48.1605 65.0939 48.8663 65.5292C49.5915 65.9642 50.4622 65.941 51.1487 65.5292L56.4781 62.2586V70.8468ZM50.3723 61.2821C51.002 61.4032 51.5967 61.7946 51.9722 62.2586L50.1958 63.3527L50.3723 61.2821ZM55.984 59.7998L53.984 61.0233C53.2022 59.8862 51.9252 59.1292 50.5605 58.9174L50.7487 56.5762C50.8075 55.8468 50.9723 55.1292 51.2428 54.435L57.6781 58.388C57.184 58.9409 56.6075 59.4115 55.984 59.7998ZM59.0428 56.4586L52.3369 52.341L64.4899 32.5645L71.1958 36.6938L59.0428 56.4586ZM73.3722 33.1527L72.4311 34.6821L65.7252 30.5645L66.6546 29.0351C67.8187 27.1527 70.2487 26.6244 72.0781 27.7409C73.9251 28.8821 74.5017 31.3057 73.3722 33.1527Z"
    fill="" />
  <path
    d="M31.7707 11.1075C33.0906 11.1075 34.1609 10.0266 34.1609 8.70684C34.1609 7.37664 33.0906 6.30615 31.7707 6.30615C30.4405 6.30615 29.3701 7.37664 29.3701 8.70684C29.3701 10.0266 30.4405 11.1075 31.7707 11.1075Z"
    fill="" />
</svg>